<svg
  id="visual"
  viewBox="0 350 900 250"
  width="900"
  height="250"
  xmlns="http://www.w3.org/2000/svg"
  xmlns:xlink="http://www.w3.org/1999/xlink"
  version="1.1"
  preserveAspectRatio="none"
>
  <path
    d="M0 433L21.5 427.5C43 422 86 411 128.8 399.7C171.7 388.3 214.3 376.7 257.2 375.2C300 373.7 343 382.3 385.8 391C428.7 399.7 471.3 408.3 514.2 413.2C557 418 600 419 642.8 412.8C685.7 406.7 728.3 393.3 771.2 390C814 386.7 857 393.3 878.5 396.7L900 400L900 601L878.5 601C857 601 814 601 771.2 601C728.3 601 685.7 601 642.8 601C600 601 557 601 514.2 601C471.3 601 428.7 601 385.8 601C343 601 300 601 257.2 601C214.3 601 171.7 601 128.8 601C86 601 43 601 21.5 601L0 601Z"
    fill="#17bebb"
  ></path>
  <path
    d="M0 445L21.5 445.7C43 446.3 86 447.7 128.8 440.2C171.7 432.7 214.3 416.3 257.2 421.3C300 426.3 343 452.7 385.8 457.8C428.7 463 471.3 447 514.2 435.7C557 424.3 600 417.7 642.8 425.8C685.7 434 728.3 457 771.2 460.2C814 463.3 857 446.7 878.5 438.3L900 430L900 601L878.5 601C857 601 814 601 771.2 601C728.3 601 685.7 601 642.8 601C600 601 557 601 514.2 601C471.3 601 428.7 601 385.8 601C343 601 300 601 257.2 601C214.3 601 171.7 601 128.8 601C86 601 43 601 21.5 601L0 601Z"
    fill="#17bebb"
  ></path>
  <path
    d="M0 450L21.5 455.7C43 461.3 86 472.7 128.8 480.7C171.7 488.7 214.3 493.3 257.2 495.2C300 497 343 496 385.8 487.3C428.7 478.7 471.3 462.3 514.2 457.7C557 453 600 460 642.8 465.2C685.7 470.3 728.3 473.7 771.2 470.5C814 467.3 857 457.7 878.5 452.8L900 448L900 601L878.5 601C857 601 814 601 771.2 601C728.3 601 685.7 601 642.8 601C600 601 557 601 514.2 601C471.3 601 428.7 601 385.8 601C343 601 300 601 257.2 601C214.3 601 171.7 601 128.8 601C86 601 43 601 21.5 601L0 601Z"
    fill="#17bebb"
  ></path>
  <path
    d="M0 541L21.5 534C43 527 86 513 128.8 506.2C171.7 499.3 214.3 499.7 257.2 505.2C300 510.7 343 521.3 385.8 518.2C428.7 515 471.3 498 514.2 498.5C557 499 600 517 642.8 518.2C685.7 519.3 728.3 503.7 771.2 495.3C814 487 857 486 878.5 485.5L900 485L900 601L878.5 601C857 601 814 601 771.2 601C728.3 601 685.7 601 642.8 601C600 601 557 601 514.2 601C471.3 601 428.7 601 385.8 601C343 601 300 601 257.2 601C214.3 601 171.7 601 128.8 601C86 601 43 601 21.5 601L0 601Z"
    fill="#11ffbb"
  ></path>
  <path
    d="M0 549L21.5 551.2C43 553.3 86 557.7 128.8 559.2C171.7 560.7 214.3 559.3 257.2 553.3C300 547.3 343 536.7 385.8 537C428.7 537.3 471.3 548.7 514.2 554.7C557 560.7 600 561.3 642.8 558.8C685.7 556.3 728.3 550.7 771.2 546.8C814 543 857 541 878.5 540L900 539L900 601L878.5 601C857 601 814 601 771.2 601C728.3 601 685.7 601 642.8 601C600 601 557 601 514.2 601C471.3 601 428.7 601 385.8 601C343 601 300 601 257.2 601C214.3 601 171.7 601 128.8 601C86 601 43 601 21.5 601L0 601Z"
    fill="#00fff0"
  ></path>
</svg>