<svg width="49" height="48" viewBox="0 0 49 48" fill="none" xmlns="http://www.w3.org/2000/svg">
<path d="M8.67708 0H40.3229C45.1208 0 49 3.89744 49 8.71795V39.2821C49 44.1026 45.1208 48 40.3229 48H8.67708C3.87917 48 0 44.1026 0 39.2821V8.71795C0 3.89744 3.87917 0 8.67708 0Z" fill="#330000"/>
<path d="M23.6833 28.7179H16.0883L14.5367 33.5385C14.4958 33.7231 14.3325 33.8461 14.1488 33.8256H10.3104C10.0858 33.8256 10.0246 33.7026 10.0858 33.4564L16.66 14.441C16.7213 14.2359 16.7825 14.0103 16.8642 13.7641C16.9458 13.3333 16.9867 12.882 16.9867 12.4308C16.9663 12.3282 17.0479 12.2256 17.15 12.2051H17.2113H22.4379C22.6013 12.2051 22.6829 12.2667 22.7033 12.3692L30.1554 33.4974C30.2167 33.7231 30.1554 33.8256 29.9513 33.8256H25.6842C25.5413 33.8461 25.3983 33.7436 25.3575 33.6L23.6833 28.7179ZM17.2725 24.5538H22.4583C22.3358 24.1231 22.1725 23.6103 21.9888 23.0769C21.805 22.5231 21.6213 21.9282 21.4375 21.3128C21.2333 20.6769 21.0496 20.0615 20.8454 19.4256C20.6413 18.7897 20.4575 18.1949 20.2942 17.6C20.1308 17.0256 19.9879 16.4923 19.845 16H19.8042C19.6204 16.882 19.3958 17.7641 19.11 18.6462C18.8038 19.6308 18.4975 20.6564 18.1708 21.682C17.885 22.7282 17.5788 23.6923 17.2725 24.5538Z" fill="#FF9A00"/>
<path d="M34.7082 15.7949C34.0345 15.8154 33.3811 15.5487 32.8911 15.0769C32.4216 14.5641 32.1766 13.8872 32.197 13.1897C32.1766 12.4923 32.442 11.8359 32.932 11.3641C33.422 10.8923 34.0753 10.6461 34.7491 10.6461C35.5453 10.6461 36.1578 10.8923 36.607 11.3641C37.0561 11.8564 37.3011 12.5128 37.2807 13.1897C37.3011 13.8872 37.0561 14.5641 36.5661 15.0769C36.0966 15.5692 35.4024 15.8359 34.7082 15.7949ZM32.4216 33.6V17.8051C32.4216 17.6 32.5032 17.5179 32.687 17.5179H36.7295C36.9132 17.5179 36.9949 17.6205 36.9949 17.8051V33.6C36.9949 33.8256 36.9132 33.9282 36.7295 33.9282H32.7278C32.5236 33.9282 32.4216 33.8051 32.4216 33.6Z" fill="#FF9A00"/>
</svg>
