<svg width="83" height="35" viewBox="0 0 83 35" fill="none" xmlns="http://www.w3.org/2000/svg">
<g clip-path="url(#clip0_356_30)">
<path d="M49.4965 12.2452C47.6857 12.2452 46.3372 13.1292 46.3372 15.2568C46.3372 16.8599 47.2259 17.9726 49.3991 17.9726C51.241 17.9726 52.4919 16.8937 52.4919 15.1906C52.4919 13.2606 51.3724 12.2453 49.4965 12.2453V12.2452ZM45.8748 27.2674C45.4464 27.7903 45.0193 28.3458 45.0193 29.0014C45.0193 30.3094 46.6971 30.703 49.0017 30.703C50.9109 30.703 53.5114 30.5701 53.5114 28.8054C53.5114 27.7565 52.2603 27.6916 50.6794 27.593L45.8747 27.2674H45.8748ZM55.6177 12.3441C56.2092 13.097 56.8355 14.1444 56.8355 15.6497C56.8355 19.2819 53.9717 21.4089 49.8254 21.4089C48.771 21.4089 47.8164 21.2783 47.2245 21.115L46.1379 22.8491L49.3633 23.045C55.0581 23.4057 58.4145 23.5696 58.4145 27.9204C58.4145 31.6847 55.0908 33.8105 49.3633 33.8105C43.4058 33.8105 41.1348 32.305 41.1348 29.7202C41.1348 28.247 41.7932 27.4634 42.9452 26.3818C41.8587 25.9252 41.4971 25.1075 41.4971 24.2236C41.4971 23.5032 41.8587 22.8488 42.4521 22.2267C43.0443 21.6055 43.7024 20.9829 44.4925 20.2632C42.8798 19.478 41.6617 17.7762 41.6617 15.3543C41.6617 11.5915 44.1635 9.00732 49.1985 9.00732C50.6141 9.00732 51.4704 9.13686 52.2275 9.33442H58.6463V12.1153L55.6177 12.3444" fill="#413000"/>
<path d="M64.4399 6.39746C62.5632 6.39746 61.4774 5.31661 61.4774 3.45065C61.4774 1.58704 62.5633 0.571815 64.4399 0.571815C66.3491 0.571815 67.4353 1.58704 67.4353 3.45065C67.4353 5.31658 66.3491 6.39746 64.4399 6.39746ZM60.1931 26.0629V23.4791L61.8723 23.2507C62.3334 23.1843 62.3988 23.0869 62.3988 22.5948V12.9742C62.3988 12.615 62.3005 12.3849 61.9703 12.2875L60.1931 11.6652L60.555 9.01551H67.3691V22.5951C67.3691 23.1196 67.4008 23.1845 67.8959 23.2509L69.5748 23.4793V26.0632H60.1929" fill="#413000"/>
<path d="M82.5905 24.7948C81.1745 25.4811 79.1013 26.103 77.2242 26.103C73.3076 26.103 71.8268 24.5337 71.8268 20.8344V12.2614C71.8268 12.0655 71.8268 11.934 71.5624 11.934H69.2588V9.02173C72.1562 8.69361 73.3074 7.25347 73.6696 3.68664H76.7968V8.33499C76.7968 8.56323 76.7968 8.66209 77.0605 8.66209H81.7012V11.934H76.7969V19.7546C76.7969 21.6856 77.2583 22.4376 79.0347 22.4376C79.9576 22.4376 80.911 22.2092 81.7011 21.9144L82.5906 24.795" fill="#413000"/>
<path d="M33.8205 16.2073L18.7695 1.24551C17.9035 0.38376 16.4978 0.38376 15.6307 1.24551L12.5055 4.35283L16.4697 8.29399C17.3913 7.98464 18.4476 8.19205 19.1818 8.92219C19.9199 9.65688 20.127 10.716 19.8081 11.6353L23.6288 15.4339C24.5532 15.1172 25.6197 15.3218 26.3578 16.0569C27.3897 17.0825 27.3897 18.7445 26.3578 19.7704C25.3257 20.7966 23.6541 20.7966 22.6215 19.7704C21.8455 18.9983 21.6536 17.8649 22.0466 16.9145L18.4833 13.3719L18.483 22.6941C18.7346 22.818 18.972 22.9832 19.1817 23.1907C20.2133 24.2162 20.2133 25.8779 19.1817 26.9051C18.1498 27.9306 16.4774 27.9306 15.4465 26.9051C14.4148 25.878 14.4148 24.2163 15.4465 23.1907C15.7015 22.9377 15.9966 22.7461 16.3114 22.6178V13.2089C15.9964 13.081 15.7017 12.8909 15.4464 12.6358C14.6648 11.8594 14.4766 10.7191 14.8774 9.76496L10.9695 5.87915L0.650292 16.1381C-0.216764 17.0005 -0.216764 18.3981 0.650292 19.2599L15.7004 34.2217C16.5669 35.0834 17.9721 35.0834 18.8398 34.2217L33.8203 19.3306C34.6871 18.4684 34.6871 17.0705 33.8203 16.2085" fill="#F05133"/>
</g>
<defs>
<clipPath id="clip0_356_30">
<rect width="82.5877" height="34.2949" fill="white" transform="translate(0 0.572083)"/>
</clipPath>
</defs>
</svg>
