<svg width="113" height="35" viewBox="0 0 113 35" fill="none" xmlns="http://www.w3.org/2000/svg">
<g clip-path="url(#clip0_356_35)">
<path fill-rule="evenodd" clip-rule="evenodd" d="M17.0191 0C7.72671 0 0.200195 7.52651 0.200195 16.8189C0.200195 24.2613 5.01462 30.5475 11.7001 32.7759C12.5411 32.9231 12.8565 32.4185 12.8565 31.9771C12.8565 31.5776 12.8354 30.2531 12.8354 28.8445C8.6097 29.6224 7.51643 27.8144 7.18008 26.8683C6.99085 26.3847 6.17093 24.8921 5.45612 24.4926C4.86746 24.1773 4.02651 23.3994 5.4351 23.3783C6.75959 23.3573 7.70566 24.5977 8.02104 25.1023C9.53472 27.6462 11.9524 26.9314 12.9196 26.4898C13.0667 25.3966 13.5082 24.6608 13.9917 24.2404C10.2495 23.8199 6.33912 22.3692 6.33912 15.936C6.33912 14.1069 6.99085 12.5932 8.06307 11.4159C7.89489 10.9954 7.30623 9.27145 8.23125 6.95883C8.23125 6.95883 9.63982 6.51734 12.8565 8.68279C14.202 8.30434 15.6316 8.11518 17.0612 8.11518C18.4908 8.11518 19.9204 8.30434 21.2659 8.68279C24.4826 6.49632 25.8912 6.95883 25.8912 6.95883C26.8162 9.27145 26.2275 10.9954 26.0593 11.4159C27.1316 12.5932 27.7833 14.0858 27.7833 15.936C27.7833 22.3902 23.8519 23.8199 20.1096 24.2404C20.7194 24.7659 21.2449 25.7751 21.2449 27.3518C21.2449 29.6014 21.2239 31.4094 21.2239 31.9771C21.2239 32.4185 21.5393 32.9441 22.3802 32.7759C25.719 31.6487 28.6203 29.5028 30.6757 26.6403C32.7311 23.7778 33.8371 20.3429 33.8381 16.8189C33.8381 7.52651 26.3116 0 17.0191 0Z" fill="black"/>
<path d="M53.3715 14.0281H48.2652V12.2452C48.2652 11.1212 48.2167 10.4177 48.1196 10.1347C48.0226 9.85171 47.7922 9.71016 47.4282 9.71016C47.1129 9.71016 46.8986 9.83147 46.7854 10.074C46.6722 10.3166 46.6156 10.9393 46.6156 11.9419V21.3662C46.6156 22.2476 46.6722 22.8298 46.7854 23.1128C46.8986 23.3877 47.125 23.5251 47.4647 23.5251C47.8366 23.5251 48.0873 23.3675 48.2167 23.0521C48.3541 22.7368 48.4229 22.1222 48.4229 21.2085V18.8797H47.3919V15.896H53.3715V26.4362H50.1573L49.6843 25.0291C49.3366 25.6356 48.8959 26.0925 48.3622 26.3997C47.8366 26.699 47.214 26.8485 46.4943 26.8485C45.6372 26.8485 44.8327 26.6423 44.0807 26.2299C43.3367 25.8094 42.7707 25.2919 42.3826 24.6774C41.9944 24.0629 41.7519 23.42 41.6549 22.7489C41.5578 22.0697 41.5093 21.0549 41.5093 19.7045V13.8705C41.5093 11.9945 41.6103 10.632 41.8125 9.78292C42.0147 8.93388 42.5928 8.15768 43.547 7.45416C44.5092 6.74258 45.7504 6.38681 47.2706 6.38681C48.7665 6.38681 50.0077 6.69408 50.9942 7.30864C51.9807 7.92313 52.6236 8.65495 52.9227 9.50399C53.2219 10.3449 53.3715 11.5699 53.3715 13.1791V14.0281ZM60.2608 6.7992V9.3584H55.2151V6.7992H60.2608ZM60.2608 10.3408V26.4362H55.2151V10.3408H60.2608ZM67.1986 8.19406V10.729H68.5205V13.2761H67.1986V21.8877C67.1986 22.947 67.2512 23.5373 67.3563 23.6586C67.4695 23.7799 67.9261 23.8405 68.727 23.8405V26.4362H66.7498C65.634 26.4362 64.8375 26.3917 64.3604 26.3027C63.8833 26.2057 63.4629 25.9914 63.099 25.6599C62.7351 25.3202 62.5087 24.9362 62.4198 24.5076C62.3308 24.071 62.2864 23.0521 62.2864 21.4511V13.2761H61.2311V10.729H62.2864V8.19406H67.1986ZM81.4867 6.7992V26.4362H76.3801V18.1884H74.8523V26.4362H69.7457V6.7992H74.8523V13.8219H76.3801V6.7992H81.4867ZM94.6223 10.3408V26.4362H89.6374L89.7222 25.102C89.3826 25.6437 88.9623 26.0521 88.4606 26.327C87.9677 26.5938 87.3975 26.7272 86.7506 26.7272C86.0149 26.7272 85.4044 26.5978 84.9189 26.3391C84.434 26.0804 84.0743 25.7367 83.8396 25.3081C83.613 24.8796 83.4717 24.4348 83.4153 23.9739C83.3588 23.505 83.3305 22.5791 83.3305 21.1964V10.3408H88.2307V21.2934C88.2307 22.5467 88.267 23.2907 88.3396 23.5251C88.4203 23.7597 88.6308 23.8769 88.9704 23.8769C89.3341 23.8769 89.5487 23.7556 89.6132 23.513C89.6858 23.2705 89.7222 22.4902 89.7222 21.1721V10.3408H94.6223ZM101.282 6.7992V11.4446C101.686 10.9756 102.134 10.6279 102.628 10.4015C103.129 10.167 103.671 10.0498 104.253 10.0498C104.924 10.0498 105.507 10.1549 105.999 10.3651C106.493 10.5754 106.869 10.8705 107.128 11.2505C107.386 11.6306 107.54 12.0025 107.588 12.3665C107.645 12.7303 107.673 13.5065 107.673 14.6952V21.9484C107.673 23.1289 107.592 24.0103 107.43 24.5925C107.277 25.1667 106.909 25.668 106.327 26.0965C105.745 26.517 105.053 26.7272 104.253 26.7272C103.679 26.7272 103.141 26.6019 102.64 26.3512C102.146 26.1006 101.694 25.7246 101.282 25.2232L100.966 26.4362H96.3814V6.7992H101.282ZM102.773 14.9136C102.773 14.0807 102.721 13.5389 102.616 13.2883C102.51 13.0295 102.304 12.9001 101.997 12.9001C101.698 12.9001 101.503 13.0133 101.415 13.2397C101.326 13.458 101.282 14.016 101.282 14.9136V21.8513C101.282 22.7166 101.33 23.2705 101.427 23.513C101.532 23.7556 101.734 23.8769 102.033 23.8769C102.341 23.8769 102.538 23.7516 102.628 23.5009C102.725 23.2502 102.773 22.6478 102.773 21.6937V14.9136Z" fill="black"/>
</g>
<defs>
<clipPath id="clip0_356_35">
<rect width="112.299" height="34.2949" fill="white" transform="translate(0.200195)"/>
</clipPath>
</defs>
</svg>
