<svg width="46" height="64" viewBox="0 0 46 64" fill="none" xmlns="http://www.w3.org/2000/svg">
<g clip-path="url(#clip0_258_277)">
<path d="M45.3064 12.5458L41.1861 58.7038L22.6651 63.8383L4.19513 58.7109L0.0791016 12.5458H45.3064Z" fill="#E44D26"/>
<path d="M22.6924 59.9136L37.6583 55.7646L41.1792 16.3204H22.6924V59.9136Z" fill="#F16529"/>
<path d="M14.6829 27.6444H22.6927V21.9825H8.49512L8.63056 23.5015L10.0223 39.1043H22.6927V33.4424H15.2004L14.6829 27.6444ZM15.959 41.9354H10.2752L11.0684 50.8256L22.6666 54.0451L22.6927 54.038V48.1471L22.6678 48.1537L16.3622 46.451L15.959 41.9354Z" fill="#EBEBEB"/>
<path d="M4.28662 0H7.16396V2.84277H9.79612V0H12.6736V8.60862H9.79629V5.72596H7.16414V8.60862H4.2868V0H4.28662ZM16.4573 2.85483H13.9246V0H21.8694V2.85483H19.3351V8.60862H16.4578V2.85483H16.4576H16.4573ZM23.1303 0H26.1305L27.976 3.02484L29.8198 0H32.8212V8.60862H29.9556V4.34172L27.976 7.40255H27.9264L25.9456 4.34172V8.60862H23.1303V0ZM34.2532 0H37.1314V5.76319H41.1777V8.60862H34.253V0H34.2532Z" fill="black"/>
<path d="M22.673 39.1043H29.6451L28.9878 46.4475L22.6729 48.1519V54.0424L34.2803 50.8256L34.3653 49.8689L35.6961 34.9628L35.8342 33.4424H22.673V39.1043ZM22.673 27.6306V27.6444H36.3494L36.4628 26.3719L36.7209 23.5015L36.8562 21.9825H22.673V27.6308V27.6306Z" fill="white"/>
</g>
<defs>
<clipPath id="clip0_258_277">
<rect width="45.385" height="64" fill="white"/>
</clipPath>
</defs>
</svg>
