<svg width="55" height="55" viewBox="0 0 55 55" fill="none" xmlns="http://www.w3.org/2000/svg">
<path d="M0 0H55V55H0V0Z" fill="#F7DF1E"/>
<path d="M14.4616 45.962L18.6704 43.4148C19.4825 44.8545 20.2212 46.0726 21.993 46.0726C23.6913 46.0726 24.7623 45.4083 24.7623 42.8242V25.2504H29.9308V42.8972C29.9308 48.2505 26.7928 50.6873 22.2145 50.6873C18.0798 50.6873 15.6798 48.5459 14.4614 45.9615L14.4616 45.962ZM32.7382 45.4081L36.9465 42.9716C38.0545 44.7808 39.4944 46.1098 42.0416 46.1098C44.1833 46.1098 45.5489 45.039 45.5489 43.5622C45.5489 41.7901 44.146 41.1624 41.7831 40.129L40.4913 39.5747C36.7622 37.9876 34.2887 35.9939 34.2887 31.7851C34.2887 27.9084 37.2422 24.9548 41.8572 24.9548C45.143 24.9548 47.5059 26.0995 49.204 29.0899L45.1796 31.6744C44.2933 30.087 43.3338 29.4594 41.857 29.4594C40.3432 29.4594 39.3833 30.4193 39.3833 31.6744C39.3833 33.225 40.3432 33.853 42.5583 34.8129L43.8503 35.3665C48.2439 37.2496 50.7174 39.1693 50.7174 43.4885C50.7174 48.1407 47.0625 50.6879 42.1522 50.6879C37.3528 50.6879 34.2515 48.399 32.738 45.4083" fill="black"/>
</svg>
