<svg width="155" height="44" viewBox="0 0 155 44" fill="none" xmlns="http://www.w3.org/2000/svg">
<g clip-path="url(#clip0_258_322)">
<path fill-rule="evenodd" clip-rule="evenodd" d="M144.317 18.2217C144.178 18.2495 144.038 18.5553 144.038 18.722C144.01 19.8347 143.982 22.7827 143.982 24.785C143.982 24.8407 144.066 24.9519 144.15 24.9519C144.569 24.9796 145.574 25.0074 146.441 25.0074C147.642 25.0074 148.34 24.8407 148.732 24.6741C149.737 24.1732 150.212 23.0885 150.212 21.8924C150.212 19.1951 148.312 18.166 145.491 18.166C145.295 18.1382 144.737 18.1382 144.317 18.2217ZM151.525 30.6532C151.525 27.8999 149.486 26.3702 145.798 26.3702C145.63 26.3702 144.457 26.3424 144.178 26.3979C144.094 26.4259 143.982 26.4817 143.982 26.5652C143.982 28.5394 143.954 31.6824 144.038 32.906C144.094 33.4343 144.485 34.1853 144.96 34.4077C145.463 34.6859 146.608 34.7413 147.391 34.7413C149.598 34.7413 151.525 33.5178 151.525 30.6532ZM138.619 16.6923C138.898 16.6923 139.736 16.7755 141.887 16.7755C143.926 16.7755 145.547 16.72 147.53 16.72C149.96 16.72 153.313 17.5819 153.313 21.1974C153.313 22.9773 152.056 24.3959 150.408 25.0912C150.324 25.1189 150.324 25.1743 150.408 25.2021C152.754 25.7864 154.822 27.2324 154.822 29.9577C154.822 32.6278 153.146 34.3242 150.715 35.3811C149.234 36.0206 147.391 36.243 145.519 36.243C144.094 36.243 140.267 36.0764 138.144 36.1321C137.92 36.0484 138.339 35.0472 138.534 34.8805C139.038 34.8525 139.428 34.8248 139.959 34.6578C140.714 34.4635 140.797 34.2407 140.909 33.1007C140.965 32.1272 140.965 28.6784 140.965 26.2312C140.965 22.8661 140.993 20.5857 140.965 19.4733C140.937 18.6114 140.63 18.3329 140.015 18.166C139.54 18.0828 138.758 17.9713 138.115 17.8881C137.976 17.7489 138.451 16.8032 138.619 16.6923ZM122.499 33.9906C123.169 34.5186 124.482 34.741 125.656 34.741C127.164 34.741 128.673 34.4634 130.126 33.1558C131.606 31.8213 132.64 29.7633 132.64 26.4817C132.64 23.3387 131.439 20.7801 128.98 19.2786C127.583 18.4161 125.795 18.0551 123.728 18.0551C123.113 18.0551 122.527 18.0828 122.164 18.2495C122.08 18.3052 121.884 18.5553 121.884 18.6943C121.828 19.2506 121.828 23.5334 121.828 26.0365C121.828 28.6229 121.828 32.2384 121.884 32.6555C121.884 33.0729 122.08 33.7124 122.499 33.9906H122.499ZM116.157 16.692C116.688 16.692 118.727 16.7755 119.705 16.7755C121.465 16.7755 122.722 16.6923 126.047 16.6923C128.84 16.6923 131.187 17.443 132.863 18.8612C134.902 20.6134 135.964 23.0331 135.964 25.9808C135.964 30.1804 134.037 32.6001 132.109 33.9906C130.182 35.4088 127.667 36.243 124.091 36.243C122.192 36.243 118.923 36.1876 116.213 36.1596H116.185C116.045 35.9094 116.408 34.936 116.632 34.9083C117.358 34.8248 117.554 34.7968 117.917 34.6581C118.504 34.4354 118.616 34.1295 118.7 33.1007C118.783 31.1815 118.755 28.8733 118.755 26.259C118.755 24.3959 118.783 20.7523 118.727 19.5842C118.644 18.6111 118.225 18.3607 117.386 18.1937C116.967 18.1105 116.408 17.999 115.626 17.9158C115.514 17.7208 116.017 16.8589 116.157 16.6923V16.692Z" fill="#8E714E"/>
<path fill-rule="evenodd" clip-rule="evenodd" d="M82.3538 35.0749C81.6554 34.9914 81.1526 34.8805 80.538 34.6024C80.4542 34.5466 80.3143 34.2688 80.3143 34.1572C80.2586 33.1838 80.2586 30.4028 80.2586 28.5397C80.2586 27.0377 80.0073 25.7306 79.3646 24.813C78.6102 23.7558 77.521 23.1443 76.1238 23.1443C74.8947 23.1443 73.2464 23.9785 71.8774 25.1466C71.8495 25.1743 71.6261 25.3693 71.654 25.0631C71.654 24.7572 71.71 24.1454 71.7378 23.728C71.766 23.3387 71.5423 23.1443 71.5423 23.1443C70.6483 23.5891 68.1341 24.1732 67.212 24.2563C66.5417 24.3959 66.374 25.0354 67.0727 25.2578H67.1005C67.8544 25.4802 68.3575 25.7306 68.7483 25.9811C69.0278 26.2035 68.9999 26.5094 68.9999 26.7598C69.0278 28.8453 69.0278 32.0437 68.9442 33.7959C68.9164 34.4912 68.7208 34.7413 68.2176 34.8525L68.2736 34.8248C67.8825 34.9083 67.5752 34.9914 67.1002 35.0472C66.9325 35.2142 66.9325 36.1041 67.1002 36.2988C67.4075 36.2988 69.0278 36.2153 70.3692 36.2153C72.2128 36.2153 73.1628 36.2988 73.6375 36.2988C73.8331 36.0764 73.8891 35.2419 73.7774 35.0472C73.2464 35.0195 72.8552 34.964 72.4922 34.8525C71.9894 34.741 71.8495 34.4912 71.8214 33.9071C71.766 32.4328 71.766 29.3182 71.766 27.2046C71.766 26.6206 71.9334 26.3424 72.1008 26.1755C72.7435 25.6194 73.7774 25.2301 74.6992 25.2301C75.5932 25.2301 76.1796 25.5082 76.6267 25.8699C77.2412 26.3702 77.4368 27.0934 77.5207 27.6217C77.6602 28.8176 77.6045 31.1815 77.6045 33.2396C77.6045 34.3519 77.5207 34.6301 77.102 34.769C76.9061 34.8525 76.4033 34.964 75.8166 35.0192C75.621 35.2142 75.677 36.0764 75.8166 36.2711C76.6267 36.2711 77.5767 36.1876 78.9735 36.1876C80.7054 36.1876 81.8231 36.2711 82.2703 36.2711C82.4095 36.1041 82.4655 35.2976 82.3538 35.0749ZM90.0923 24.4516C88.6119 24.4516 87.6898 25.5917 87.6898 27.3713C87.6898 29.1792 88.4999 31.265 90.7907 31.265C91.1819 31.265 91.9084 31.098 92.2432 30.7087C92.7742 30.2084 93.1375 29.2069 93.1375 28.15C93.1375 25.8418 91.992 24.4513 90.0923 24.4513V24.4516ZM89.8968 36.7436C89.3382 36.7436 88.9468 36.9106 88.6955 37.0498C87.5221 37.8002 86.9914 38.5235 86.9914 39.386C86.9914 40.1922 87.2987 40.8317 87.9692 41.388C88.7794 42.0833 89.8968 42.4172 91.3214 42.4172C94.1711 42.4172 95.4283 40.8874 95.4283 39.386C95.4283 38.3288 94.8973 37.6335 93.8081 37.2445C93.0258 36.9106 91.6011 36.7436 89.8968 36.7436ZM90.0923 43.9747C88.3882 43.9747 87.1588 43.613 86.0974 42.8066C85.0636 42.0278 84.6168 40.8597 84.6168 40.0532C84.6168 39.8308 84.6728 39.2188 85.1756 38.6627C85.4826 38.3288 86.1534 37.6893 87.7458 36.6047C87.8015 36.5769 87.8294 36.5492 87.8294 36.4932C87.8294 36.4377 87.7734 36.382 87.7177 36.3545C86.4047 35.854 86.0136 35.0472 85.9016 34.6024V34.5466C85.874 34.3797 85.818 34.213 86.0696 34.046C86.2652 33.9071 86.5446 33.7402 86.8516 33.5458C87.3265 33.2673 87.8294 32.9614 88.1367 32.711C88.1927 32.6555 88.1927 32.6001 88.1927 32.5443C88.1927 32.4886 88.1367 32.4328 88.0807 32.4054C86.1256 31.7656 85.1478 30.3193 85.1478 28.15C85.1478 26.7318 85.7902 25.4525 86.9354 24.646C87.7177 24.0342 89.6733 23.2832 90.9584 23.2832H91.0423C92.3553 23.3109 93.0815 23.5891 94.1151 23.9508C94.6739 24.1454 95.2049 24.2286 95.9315 24.2286C97.0207 24.2286 97.4957 23.895 97.8865 23.5059C97.9147 23.5614 97.9707 23.7006 97.9985 24.062C98.0264 24.4236 97.9147 24.9519 97.6352 25.3413C97.4118 25.6472 96.909 25.8699 96.4061 25.8699H96.2663C95.7634 25.8141 95.5397 25.7584 95.5397 25.7584L95.4283 25.8141C95.4005 25.8699 95.4283 25.9253 95.4562 26.0088L95.4843 26.0646C95.54 26.3147 95.6517 27.0654 95.6517 27.2604C95.6517 29.5409 94.7299 30.5417 93.7521 31.2927C92.8021 31.988 91.7129 32.4328 90.4834 32.5443C90.4556 32.5443 90.3442 32.5443 90.0923 32.572C89.9528 32.572 89.7572 32.6001 89.729 32.6001H89.7012C89.4778 32.6555 88.9192 32.9337 88.9192 33.4062C88.9192 33.8233 89.1705 34.3242 90.3717 34.4077C90.623 34.4354 90.8743 34.4354 91.154 34.4634C92.7464 34.5743 94.7299 34.7136 95.6517 35.0195C96.9368 35.492 97.747 36.6324 97.747 37.9952C97.747 40.0535 96.2666 41.9724 93.8081 43.1679C92.6068 43.6965 91.4053 43.9747 90.0923 43.9747ZM106.016 24.5906C105.43 24.5906 104.899 24.7292 104.508 25.0074C103.418 25.6749 102.86 27.01 102.86 28.9565C102.86 32.6001 104.703 35.1587 107.329 35.1587C108.112 35.1587 108.726 34.936 109.257 34.4912C110.067 33.8233 110.486 32.4886 110.486 30.6252C110.486 27.01 108.67 24.5903 106.016 24.5903L106.016 24.5906ZM106.519 36.4935C101.77 36.4935 100.066 33.0172 100.066 29.7633C100.066 27.4828 100.988 25.7306 102.831 24.4791C104.145 23.6726 105.709 23.2278 107.106 23.2278C110.738 23.2278 113.28 25.8141 113.28 29.5409C113.28 32.0715 112.274 34.0738 110.346 35.2976C109.425 35.9094 107.832 36.4935 106.519 36.4935H106.519ZM56.7358 24.5903C56.1491 24.5903 55.6184 24.7292 55.227 25.0074C54.1378 25.6749 53.5789 27.01 53.5789 28.9565C53.5789 32.6001 55.4226 35.1587 58.0488 35.1587C58.8311 35.1587 59.4456 34.936 59.9766 34.4912C60.7864 33.8233 61.2057 32.4886 61.2057 30.6252C61.2057 27.01 59.4178 24.5903 56.7358 24.5903ZM57.2387 36.4935C52.4894 36.4935 50.7853 33.0172 50.7853 29.7633C50.7853 27.4828 51.7071 25.7306 53.5508 24.4791C54.864 23.6726 56.4286 23.2278 57.8254 23.2278C61.4573 23.2278 63.9993 25.8141 63.9993 29.5409C63.9993 32.0715 62.9937 34.0738 61.0658 35.2976C60.1719 35.9094 58.5795 36.4935 57.2387 36.4935ZM25.3069 36.2153C25.2508 36.1321 25.1948 35.8817 25.223 35.5758C25.223 35.3531 25.279 35.2142 25.3069 35.1587C25.8936 35.0749 26.2008 34.9914 26.536 34.9083C27.0948 34.769 27.3182 34.4634 27.3461 33.7682C27.4302 32.0995 27.4302 28.9288 27.4021 26.7318V26.676C27.4021 26.4259 27.4021 26.1197 27.0948 25.8973C26.6477 25.6194 26.117 25.3693 25.4186 25.174C25.1673 25.0911 24.9996 24.9519 25.0274 24.7852C25.0274 24.6183 25.1951 24.4236 25.5584 24.3679C26.4803 24.2844 28.8825 23.7006 29.8324 23.2832C29.8884 23.3387 29.9723 23.5059 29.9723 23.7283L29.9444 24.0339C29.9163 24.3401 29.8884 24.7018 29.8884 25.0631C29.8884 25.1743 30.0004 25.2578 30.1119 25.2578C30.1679 25.2578 30.2239 25.2301 30.2796 25.202C32.0675 23.8115 33.6878 23.3109 34.5257 23.3109C35.895 23.3109 36.9567 23.9508 37.7668 25.2855C37.8225 25.3693 37.8785 25.397 37.9624 25.397C38.0181 25.397 38.1016 25.3693 38.1298 25.3135C39.7782 24.062 41.4266 23.3109 42.5158 23.3109C45.1139 23.3109 46.6505 25.2301 46.6505 28.484C46.6505 29.4016 46.6505 30.5975 46.6227 31.6824C46.6227 32.6555 46.5948 33.5455 46.5948 34.1853C46.5948 34.3239 46.7901 34.769 47.0974 34.8525C47.4885 35.0472 48.0195 35.1307 48.7179 35.2419H48.7458C48.8018 35.4366 48.6901 36.1595 48.5783 36.2988C48.4106 36.2988 48.1591 36.2988 47.8799 36.2711C47.1727 36.2343 46.4647 36.2157 45.7566 36.2153C44.0246 36.2153 43.1306 36.243 42.2642 36.2988C42.2088 36.0764 42.1807 35.4088 42.2642 35.2419C42.7674 35.1587 43.0186 35.0749 43.3262 34.9917C43.8851 34.8248 44.0246 34.5743 44.0528 33.8514C44.0528 33.3231 44.1642 28.8176 43.9965 27.7329C43.8291 26.6206 42.9908 25.3135 41.1468 25.3135C40.4484 25.3135 39.3592 25.5917 38.2975 26.3979C38.2418 26.4536 38.1855 26.5926 38.1855 26.676V26.7041C38.2975 27.2878 38.2975 27.9557 38.2975 28.9845V30.7922C38.2975 32.0437 38.2693 33.2119 38.2975 34.1015C38.2975 34.7136 38.6608 34.8525 38.968 34.964C39.1358 34.9914 39.2472 35.0195 39.387 35.0472C39.6383 35.1029 39.8899 35.1587 40.281 35.2419C40.337 35.3534 40.337 35.7147 40.2532 36.0206C40.225 36.1876 40.169 36.2708 40.1411 36.2988C39.1915 36.2711 38.2136 36.243 36.789 36.243C36.37 36.243 35.6434 36.2711 35.0289 36.2711C34.5257 36.2711 34.051 36.2988 33.7719 36.2988C33.7438 36.243 33.6878 36.0486 33.6878 35.7425C33.6878 35.4923 33.7438 35.2976 33.7998 35.2419C33.9393 35.2142 34.051 35.1864 34.1909 35.1864C34.5257 35.1307 34.8054 35.0749 35.0846 35.0195C35.5599 34.8805 35.7273 34.6301 35.7551 34.0183C35.839 32.6278 35.9228 28.6509 35.7273 27.6495C35.3921 26.0365 34.4703 25.2301 32.9893 25.2301C32.1235 25.2301 31.0337 25.6472 30.14 26.315C30.0001 26.4259 29.8884 26.7038 29.8884 26.9542V28.5952C29.8884 30.5975 29.8884 33.1006 29.9163 34.1853C29.9444 34.5186 30.0558 34.9083 30.6986 35.0472C30.8384 35.0749 31.0618 35.1307 31.3413 35.1587L31.8438 35.2419C31.9001 35.4088 31.872 36.0764 31.7602 36.2988C31.4808 36.2988 31.1457 36.2711 30.7543 36.2711C30.0285 36.2351 29.3021 36.2165 28.5755 36.2153C27.5976 36.2153 26.8992 36.243 26.3404 36.2711C25.9493 36.2153 25.642 36.2153 25.3069 36.2153Z" fill="#442D22"/>
<path fill-rule="evenodd" clip-rule="evenodd" d="M10.6117 42.89L9.46649 42.5004C9.46649 42.5004 9.60636 36.6882 7.51083 36.2711C6.11432 34.6578 7.73485 -32.1438 12.7633 36.0483C12.7633 36.0483 11.031 36.9103 10.7238 38.3846C10.3883 39.8308 10.6117 42.89 10.6117 42.89Z" fill="white"/>
<path fill-rule="evenodd" clip-rule="evenodd" d="M10.6117 42.89L9.46649 42.5004C9.46649 42.5004 9.60636 36.6882 7.51083 36.2711C6.11432 34.6578 7.73485 -32.1438 12.7633 36.0483C12.7633 36.0483 11.031 36.9103 10.7238 38.3846C10.3883 39.8308 10.6117 42.89 10.6117 42.89Z" fill="#A6A385"/>
<path fill-rule="evenodd" clip-rule="evenodd" d="M11.2264 37.2722C11.2264 37.2722 21.256 30.7087 18.9089 17.0533C16.6463 7.12528 11.3103 3.8714 10.7236 2.61981C10.0812 1.72986 9.46631 0.172684 9.46631 0.172684L9.8856 27.7884C9.8856 27.8164 9.01947 36.243 11.2267 37.2725" fill="white"/>
<path fill-rule="evenodd" clip-rule="evenodd" d="M11.2264 37.2722C11.2264 37.2722 21.256 30.7087 18.9089 17.0533C16.6463 7.12528 11.3103 3.8714 10.7236 2.61981C10.0812 1.72986 9.46631 0.172684 9.46631 0.172684L9.8856 27.7884C9.8856 27.8164 9.01947 36.243 11.2267 37.2725" fill="#499D4A"/>
<path fill-rule="evenodd" clip-rule="evenodd" d="M8.88012 37.6336C8.88012 37.6336 -0.534918 31.237 0.0239294 19.9739C0.554623 8.71049 7.20358 3.17613 8.48869 2.17498C9.32696 1.28504 9.35481 0.951118 9.41081 0.0611725C9.99751 1.31276 9.88581 18.778 9.96936 20.8358C10.2206 28.7618 9.52252 36.1321 8.88012 37.6336Z" fill="white"/>
<path fill-rule="evenodd" clip-rule="evenodd" d="M8.88012 37.6336C8.88012 37.6336 -0.534918 31.237 0.0239294 19.9739C0.554623 8.71049 7.20358 3.17613 8.48869 2.17498C9.32696 1.28504 9.35481 0.951118 9.41081 0.0611725C9.99751 1.31276 9.88581 18.778 9.96936 20.8358C10.2206 28.7618 9.52252 36.1321 8.88012 37.6336Z" fill="#58AA50"/>
</g>
<defs>
<clipPath id="clip0_258_322">
<rect width="155" height="44" fill="white"/>
</clipPath>
</defs>
</svg>
