<svg width="91" height="62" viewBox="0 0 91 62" fill="none" xmlns="http://www.w3.org/2000/svg">
<g clip-path="url(#clip0_258_318)">
<path d="M27.0707 40.9124L29.8363 49.8814C30.4576 51.9178 30.7168 53.3394 30.613 54.1496C32.1255 50.1006 33.1823 45.6881 33.7836 40.9124H37.109C35.6791 48.6874 33.7932 54.3374 31.4522 57.862C29.6283 60.5781 27.6302 61.936 25.4544 61.936C24.8743 61.936 24.1591 61.7609 23.3104 61.413V59.5388C23.725 59.5996 24.2115 59.6321 24.771 59.6321C25.7861 59.6321 26.6042 59.3509 27.2266 58.7897C27.9718 58.1059 28.3449 57.3374 28.3449 56.4856C28.3449 55.9039 28.0539 54.7103 27.4747 52.9046L23.6214 40.9124H27.0705H27.0707ZM5.90487 35.3997L10.9703 50.8475H11.0016L16.0981 35.3997H20.2621C21.1739 43.0607 21.7124 50.0702 21.8777 56.4239H18.3671C18.2435 50.4845 17.9014 44.8995 17.3419 39.6679H17.3113L11.9654 56.4239H9.29195L3.97841 39.6679H3.94712C3.55291 44.6922 3.30479 50.2772 3.20135 56.4239H0C0.206883 48.9484 0.724623 41.941 1.55322 35.3997H5.90505H5.90487Z" fill="#00758F"/>
<path d="M62.651 35.0877C68.0998 35.0877 70.8243 38.5672 70.8243 45.5227C70.8243 49.3024 70.005 52.1575 68.3678 54.0862C68.0728 54.4387 67.7467 54.7432 67.4033 55.0253L71.2592 56.9309L71.2555 56.9307L69.8864 59.2938L64.8649 56.3653C64.0326 56.6117 63.1167 56.7348 62.1187 56.7348C59.4433 56.7348 57.4448 55.9554 56.1235 54.3987C54.6732 52.6765 53.9484 49.9654 53.9484 46.2699C53.9484 42.5116 54.7664 39.6674 56.404 37.7361C57.8956 35.9696 59.9782 35.0876 62.651 35.0876V35.0877ZM45.9653 35.1183C47.9128 35.1183 49.6835 35.6392 51.2785 36.6772L50.4684 38.4816C49.1036 37.9017 47.7579 37.6105 46.431 37.6105C45.3543 37.6105 44.5246 37.8696 43.9463 38.3908C43.3647 38.9074 43.005 39.5722 43.005 40.3826C43.005 41.6279 43.8926 42.7079 45.5315 43.6203C46.0684 43.9136 46.6034 44.2104 47.1366 44.5105L47.2589 44.5792L47.3202 44.6137L47.4426 44.6825L47.5038 44.7169L47.6261 44.7858C48.8667 45.4849 50.034 46.1522 50.034 46.1522C51.6727 47.3149 52.4896 48.5545 52.4896 50.5963C52.4896 52.3793 51.8359 53.843 50.5327 54.9883C49.2287 56.1285 47.4768 56.7001 45.2828 56.7001C43.2309 56.7001 41.2422 56.0421 39.3159 54.7371L40.217 52.9311C41.8748 53.7616 43.3748 54.1764 44.7219 54.1764C45.9852 54.1764 46.9741 53.8945 47.6895 53.3378C48.4035 52.7769 48.8313 51.9947 48.8313 51.0029C48.8313 49.7545 47.9625 48.6874 46.3688 47.7922C45.8699 47.5167 45.3726 47.2386 44.8767 46.9578L44.7546 46.8887C44.5303 46.762 44.3044 46.6338 44.0831 46.5082L43.9631 46.4399C42.887 45.8281 41.9565 45.2936 41.9565 45.2936C40.3633 44.1287 39.5644 42.8789 39.5644 40.8196C39.5644 39.1165 40.1602 37.7399 41.3499 36.6926C42.5425 35.6431 44.0812 35.1183 45.9653 35.1183ZM77.2279 35.3997V53.8377H83.8464V56.4239H73.8712V35.3997H77.2279ZM87.5241 53.8457V54.2827H86.7964V56.4216H86.2401V54.2827H85.4842V53.8457H87.5242H87.5241ZM88.8677 53.8457L89.5664 55.6016L90.2082 53.8457H90.9968V56.4216H90.4725V54.4612L89.742 56.4216H89.364L88.6322 54.4612H88.6041V56.4216H88.1081V53.8457H88.8679H88.8677ZM62.3083 37.6733C59.0974 37.6733 57.491 40.322 57.491 45.616C57.491 48.6485 57.9167 50.8475 58.7665 52.218C59.5535 53.4865 60.7861 54.1194 62.4644 54.1194C65.6753 54.1194 67.2815 51.45 67.2815 46.1138C67.2815 43.1237 66.8559 40.9436 66.0072 39.5723C65.2193 38.3068 63.9872 37.6733 62.3085 37.6733H62.3083Z" fill="#F29111"/>
<path d="M53.8924 1.30271C54.9576 -1.31337 58.682 0.667785 60.1273 1.58162C60.4816 1.81025 60.8879 2.29329 61.294 2.47182C61.9276 2.4967 62.5607 2.54626 63.1954 2.57273C64.3858 2.85235 65.501 3.08081 66.439 3.61483C70.7985 6.18099 73.6364 8.796 76.2482 13.1154C76.8063 14.0303 77.0851 15.0203 77.541 16.0104C78.1738 17.4861 78.8847 19.0352 79.6191 20.4307C79.9479 21.0923 80.2023 21.8279 80.6589 22.3866C80.8371 22.6421 81.3435 22.7174 81.6462 22.87C82.4829 23.3029 83.4967 23.6316 84.2837 24.1397C85.7534 25.0556 87.1744 26.1471 88.4662 27.2645C88.9477 27.6959 89.2758 28.3065 89.7345 28.7627V28.9929C89.3273 29.1178 88.9215 29.2457 88.5154 29.3482C87.6284 29.576 86.8426 29.5244 85.982 29.7524C85.4502 29.9066 84.7899 30.11 84.2322 30.1617L84.2837 30.2135C84.6118 31.1506 86.3871 31.9128 87.1989 32.4733C88.185 33.1846 89.0988 34.0472 89.8342 35.038C90.0882 35.2908 90.3422 35.5208 90.5949 35.7729C90.7716 36.0284 90.8214 36.3588 91.0002 36.5866V36.6637C90.8022 36.5939 90.6598 36.4606 90.5249 36.3213L90.4444 36.2373C90.3639 36.1538 90.2826 36.0717 90.19 36.0041C89.6305 35.6221 89.0749 35.1652 88.5154 34.8101C87.5535 34.2 86.4379 33.846 85.4502 33.2336C84.8918 32.8781 84.3595 32.4733 83.8271 32.0664C83.3446 31.7099 82.8132 31.0252 82.51 30.5171C82.3313 30.2365 82.3068 29.9066 82.1028 29.7035C82.1392 29.3644 82.4501 29.2636 82.7638 29.1809L82.8359 29.1618C82.9442 29.1338 83.0501 29.1057 83.1425 29.0686C84.4602 28.5093 86.0312 28.3065 88.0599 28.3573C87.9835 27.8481 86.7159 27.2137 86.3112 26.9089C85.4989 26.3237 84.6389 25.7131 83.7772 25.1805C83.3206 24.9016 82.5338 24.698 82.0279 24.4701C81.3435 24.1905 79.8223 23.911 79.443 23.3784C78.7987 22.5389 78.3359 21.5374 77.8866 20.5259L77.7643 20.2498C77.7235 20.1578 77.6826 20.0659 77.6416 19.9739C77.1106 18.7558 76.4508 17.4858 75.9185 16.2385C75.6402 15.63 75.5124 15.096 75.2076 14.5124C73.3579 10.9314 70.6202 7.93315 67.3011 5.82462C66.2103 5.13854 64.9941 4.50361 63.6515 4.0721C62.8906 3.8424 61.9774 3.96942 61.1667 3.79319H60.6332C60.1778 3.66493 59.7976 3.18243 59.4423 2.92803C58.6576 2.39544 57.8717 2.03782 56.9333 1.65783C56.6045 1.50541 55.6655 1.15046 55.3378 1.42991C55.1348 1.48089 55.0319 1.55746 54.9819 1.76105C54.78 2.06483 54.9576 2.52246 55.0832 2.80261C55.4639 3.61447 55.9957 4.09697 56.4784 4.78306C56.9079 5.39151 57.4412 6.0776 57.7457 6.73917C58.4026 8.16126 58.7085 9.73684 59.3172 11.1588C59.5429 11.6935 59.9 12.3019 60.2286 12.7843C60.5072 13.1671 61.0135 13.4439 61.1667 13.9285C61.4721 14.4366 60.7096 16.1131 60.5331 16.6455C59.8728 18.7288 60.0008 21.6247 60.7611 23.4305L60.8017 23.5257L60.8422 23.6222C61.1198 24.2836 61.417 24.9958 62.1551 25.1807C62.2059 25.1302 62.1551 25.1567 62.2559 25.1302C62.4345 23.7325 62.4848 22.3864 62.9668 21.2928C63.2453 20.609 63.8015 20.1257 64.1827 19.5675C64.4369 19.7195 64.4369 20.1781 64.5883 20.4815C64.9182 21.2685 65.2724 22.1313 65.679 22.9206C66.5137 24.5461 67.4528 26.1221 68.5169 27.544C68.8733 28.0519 69.3789 28.611 69.835 29.0684C70.0382 29.2455 70.2657 29.3478 70.4183 29.5758H70.4681V29.6525C69.7078 29.3724 69.2257 28.5861 68.6193 28.127C67.4775 27.2642 66.1102 25.9684 65.3232 24.725C64.9941 24.0112 64.6382 23.3271 64.2835 22.6168V22.5655C64.1319 22.7684 64.1827 22.9698 64.1068 23.2768C63.7776 24.5461 64.0311 25.9942 62.8906 26.4507C61.5977 26.9855 60.6333 25.5879 60.2286 24.9528C58.9355 22.8448 58.5812 19.2886 59.4932 16.4179C59.6958 15.7825 59.7233 15.0203 60.077 14.513C60.0006 14.0543 59.6469 13.9289 59.4423 13.6478C59.0876 13.1674 58.7838 12.6078 58.506 12.0744C57.9725 11.0323 57.5928 9.78711 57.1878 8.66951C57.0097 8.21313 56.9587 7.75497 56.7811 7.32293C56.4783 6.66349 55.92 6.00192 55.4894 5.41851C54.9062 4.58 53.2078 2.95486 53.8924 1.30271ZM62.2054 6.27958C62.2731 6.34745 62.3549 6.40678 62.4395 6.46523L62.5415 6.53522C62.6775 6.62938 62.8092 6.72851 62.8899 6.86352C63.0178 7.04224 63.0416 7.21864 63.1949 7.39772C63.1949 8.0083 63.0178 8.41423 62.6604 8.66721C62.6604 8.66721 62.6361 8.69385 62.611 8.71872C62.4084 8.31173 62.2308 7.90686 62.0268 7.50022C61.7755 7.14527 61.4202 6.8637 61.2154 6.45812H61.1662V6.40714C61.4721 6.33164 61.7755 6.27958 62.2054 6.27958Z" fill="#00758F"/>
</g>
<defs>
<clipPath id="clip0_258_318">
<rect width="91" height="62" fill="white"/>
</clipPath>
</defs>
</svg>
