<svg width="151" height="93" viewBox="0 0 151 93" fill="none" xmlns="http://www.w3.org/2000/svg">
<g clip-path="url(#clip0_258_334)">
<path d="M74.6477 92.7317C74.1366 92.7317 73.6594 92.5948 73.2161 92.3552L68.6829 89.6511C68.001 89.2744 68.342 89.1376 68.5467 89.0691C69.4668 88.7611 69.6373 88.6924 70.5916 88.1451C70.694 88.0763 70.8305 88.1107 70.9326 88.1791L74.4094 90.2672C74.5457 90.3356 74.7161 90.3356 74.8182 90.2672L88.4185 82.3598C88.5547 82.2914 88.6232 82.1543 88.6232 81.9834V66.203C88.6232 66.0315 88.5547 65.895 88.4185 65.8262L74.8182 57.9532C74.6819 57.8845 74.5114 57.8845 74.4094 57.9532L60.8091 65.8262C60.6728 65.8947 60.6044 66.0659 60.6044 66.2027V81.9831C60.6044 82.1202 60.6728 82.2911 60.8091 82.3598L64.5245 84.5163C66.5356 85.5431 67.7967 84.3451 67.7967 83.1471V67.5719C67.7967 67.3667 67.9671 67.1611 68.2057 67.1611H69.944C70.1487 67.1611 70.3531 67.3323 70.3531 67.5719V83.1471C70.3531 85.8512 68.8873 87.4259 66.3309 87.4259C65.547 87.4259 64.9336 87.4259 63.195 86.57L59.6161 84.5163C58.7299 84.003 58.1846 83.0443 58.1846 82.0174V66.237C58.1846 65.2102 58.7299 64.2515 59.6161 63.7382L73.2161 55.8308C74.0685 55.3516 75.2275 55.3516 76.0795 55.8308L89.6796 63.7382C90.5658 64.2515 91.1114 65.2102 91.1114 66.237V82.0174C91.1114 83.0443 90.5658 84.003 89.6796 84.5163L76.0795 92.4236C75.6363 92.6292 75.1252 92.7317 74.648 92.7317H74.6477ZM78.8403 81.8806C72.8755 81.8806 71.6483 79.1421 71.6483 76.8145C71.6483 76.6089 71.8188 76.4037 72.0574 76.4037H73.8299C74.0343 76.4037 74.2047 76.5405 74.2047 76.746C74.4775 78.5601 75.2614 79.4502 78.8745 79.4502C81.7376 79.4502 82.9651 78.7997 82.9651 77.2593C82.9651 76.3693 82.6239 75.7192 78.1588 75.274C74.4433 74.8973 72.1255 74.076 72.1255 71.0979C72.1255 68.3251 74.4436 66.6819 78.3292 66.6819C82.692 66.6819 84.8396 68.1883 85.1124 71.4741C85.1124 71.5771 85.0782 71.6796 85.0101 71.7824C84.9417 71.8508 84.8396 71.9192 84.7373 71.9192H82.9648C82.7943 71.9192 82.6239 71.7824 82.5899 71.6112C82.1809 69.7287 81.1242 69.1123 78.3292 69.1123C75.1933 69.1123 74.8182 70.2079 74.8182 71.0292C74.8182 72.022 75.2614 72.33 79.488 72.8777C83.6806 73.4256 85.6577 74.2128 85.6577 77.1565C85.6235 80.169 83.1695 81.8806 78.8403 81.8806Z" fill="#539E43"/>
<path d="M32.4499 31.0134C32.4499 30.3974 32.109 29.8151 31.5637 29.5071L17.1113 21.1548C16.8724 21.0177 16.5999 20.9493 16.3274 20.9149H16.1909C15.9183 20.9149 15.6455 21.0177 15.407 21.1548L0.9546 29.5071C0.408994 29.8151 0.0683594 30.3971 0.0683594 31.0134L0.10257 53.4688C0.10257 53.7768 0.273035 54.0848 0.545543 54.222C0.818346 54.3932 1.15898 54.3932 1.39787 54.222L9.98747 49.2927C10.5328 48.9846 10.8737 48.4027 10.8737 47.7866V37.2776C10.8737 36.6616 11.2143 36.0796 11.7599 35.7715L15.407 33.6491C15.6798 33.4779 15.9865 33.4092 16.2932 33.4092C16.5999 33.4092 16.9066 33.4779 17.1455 33.6491L20.7925 35.7715C21.3381 36.0796 21.6788 36.6613 21.6788 37.2776V47.7866C21.6788 48.4027 22.0197 48.9846 22.565 49.2927L31.1546 54.222C31.2873 54.3059 31.4409 54.3504 31.5977 54.3504C31.7545 54.3504 31.9081 54.3059 32.0408 54.222C32.3136 54.0848 32.4841 53.7768 32.4841 53.4688L32.4499 31.0134ZM101.917 0.102787C101.644 -0.0343437 101.303 -0.0343437 101.064 0.102787C100.792 0.273978 100.621 0.547647 100.621 0.855672V23.1061C100.621 23.3113 100.519 23.5166 100.315 23.6537C100.11 23.7562 99.9056 23.7562 99.7012 23.6537L96.0882 21.5656C95.8233 21.4142 95.5237 21.3345 95.2189 21.3345C94.914 21.3345 94.6145 21.4142 94.3496 21.5656L79.8972 29.9522C79.3519 30.2603 79.011 30.8422 79.011 31.4583V48.1971C79.011 48.8132 79.3519 49.3954 79.8972 49.7035L94.3496 58.0901C94.6145 58.2415 94.914 58.3212 95.2189 58.3212C95.5237 58.3212 95.8233 58.2415 96.0882 58.0901L110.54 49.7035C111.086 49.3954 111.427 48.8135 111.427 48.1971V6.46973C111.427 5.81932 111.086 5.23763 110.54 4.92931L101.917 0.102787H101.917ZM100.587 42.6861C100.587 42.8573 100.519 42.9941 100.383 43.0626L95.4405 45.9379C95.3715 45.9717 95.2957 45.9893 95.2189 45.9893C95.1421 45.9893 95.0663 45.9717 94.9972 45.9379L90.0549 43.0626C89.9184 42.9941 89.8503 42.823 89.8503 42.6861V36.9352C89.8503 36.764 89.9184 36.6272 90.0549 36.5588L94.9972 33.6832C95.0663 33.6494 95.1421 33.6318 95.2189 33.6318C95.2957 33.6318 95.3715 33.6494 95.4405 33.6832L100.383 36.5588C100.519 36.6269 100.587 36.7984 100.587 36.9352V42.6861ZM150.012 36.7984C150.557 36.4904 150.864 35.9084 150.864 35.292V31.2187C150.864 30.6026 150.523 30.0207 150.012 29.7126L135.662 21.3604C135.397 21.2089 135.097 21.1293 134.792 21.1293C134.488 21.1293 134.188 21.2089 133.923 21.3604L119.471 29.7467C118.925 30.0547 118.584 30.6367 118.584 31.2528V47.9919C118.584 48.6079 118.925 49.1899 119.471 49.4979L133.821 57.7133C134.366 58.0213 135.014 58.0213 135.525 57.7133L144.217 52.853C144.49 52.7159 144.66 52.4079 144.66 52.0999C144.66 51.7918 144.49 51.4838 144.217 51.3467L129.697 42.9601C129.424 42.7889 129.253 42.5152 129.253 42.2072V36.9699C129.253 36.6619 129.424 36.3538 129.697 36.2167L134.23 33.6151C134.363 33.5312 134.516 33.4867 134.673 33.4867C134.83 33.4867 134.983 33.5312 135.116 33.6151L139.65 36.2167C139.922 36.3879 140.093 36.6616 140.093 36.9699V41.0776C140.093 41.3856 140.263 41.6936 140.536 41.8305C140.669 41.9144 140.822 41.9589 140.979 41.9589C141.136 41.9589 141.289 41.9144 141.422 41.8305L150.012 36.7984Z" fill="#333333"/>
<path d="M134.571 36.0109C134.621 35.9774 134.681 35.9595 134.741 35.9595C134.802 35.9595 134.861 35.9774 134.912 36.0109L137.673 37.6197C137.775 37.6884 137.843 37.7909 137.843 37.9277V41.1457C137.843 41.2825 137.775 41.3853 137.673 41.4537L134.912 43.0626C134.861 43.0961 134.802 43.1139 134.741 43.1139C134.681 43.1139 134.621 43.0961 134.571 43.0626L131.81 41.4537C131.708 41.3853 131.64 41.2825 131.64 41.1457V37.928C131.64 37.7909 131.707 37.6881 131.81 37.62L134.571 36.0109Z" fill="#539E43"/>
<path d="M71.001 29.7467L56.5829 21.4288C56.4412 21.357 56.2927 21.2996 56.1396 21.2576L39.9829 49.0534C40.1167 49.2175 40.2784 49.3565 40.4604 49.4642L54.8785 57.7823C55.2876 58.022 55.7648 58.0904 56.2077 57.9532L71.3762 30.0894C71.2738 29.9525 71.1373 29.8495 71.001 29.747V29.7467Z" fill="url(#paint0_linear_258_334)"/>
<path fill-rule="evenodd" clip-rule="evenodd" d="M54.4016 18.382L54.1973 18.4848H54.4698L54.4016 18.382Z" fill="url(#paint1_linear_258_334)"/>
<path fill-rule="evenodd" clip-rule="evenodd" d="M71.0353 49.4295C71.4444 49.1899 71.7511 48.7791 71.8877 48.3342L56.0713 21.2233C55.6622 21.1548 55.219 21.1889 54.8444 21.4285L40.5283 29.7126L55.969 57.9873C56.1935 57.9504 56.4116 57.8812 56.6166 57.782L71.035 49.4298L71.0353 49.4295Z" fill="url(#paint2_linear_258_334)"/>
<path fill-rule="evenodd" clip-rule="evenodd" d="M72.3656 49.1558L72.2627 48.9846V49.2243L72.3653 49.1558H72.3656Z" fill="url(#paint3_linear_258_334)"/>
<path fill-rule="evenodd" clip-rule="evenodd" d="M71.0353 49.4295L56.6511 57.7477C56.448 57.8517 56.2291 57.921 56.0034 57.9529L56.2762 58.4665L72.2282 49.1902V48.9847L71.8192 48.2999C71.7511 48.7791 71.4443 49.1899 71.0353 49.4295Z" fill="url(#paint4_linear_258_334)"/>
<path fill-rule="evenodd" clip-rule="evenodd" d="M71.0353 49.4295L56.6511 57.7477C56.448 57.8517 56.2291 57.921 56.0034 57.9529L56.2762 58.4665L72.2282 49.1902V48.9847L71.8192 48.2999C71.7511 48.7791 71.4443 49.1899 71.0353 49.4295Z" fill="url(#paint5_linear_258_334)"/>
</g>
<defs>
<linearGradient id="paint0_linear_258_334" x1="53.569" y1="41.5408" x2="93.0377" y2="20.1883" gradientUnits="userSpaceOnUse">
<stop offset="0.1376" stop-color="#41873F"/>
<stop offset="0.4032" stop-color="#54A044"/>
<stop offset="0.7136" stop-color="#66B848"/>
<stop offset="0.9081" stop-color="#6CC04A"/>
</linearGradient>
<linearGradient id="paint1_linear_258_334" x1="42.1694" y1="18.3958" x2="68.7163" y2="18.3958" gradientUnits="userSpaceOnUse">
<stop offset="0.09192" stop-color="#6CC04A"/>
<stop offset="0.2864" stop-color="#66B848"/>
<stop offset="0.5968" stop-color="#54A044"/>
<stop offset="0.8624" stop-color="#41873F"/>
</linearGradient>
<linearGradient id="paint2_linear_258_334" x1="39.152" y1="39.5886" x2="72.3577" y2="39.5886" gradientUnits="userSpaceOnUse">
<stop offset="0.09192" stop-color="#6CC04A"/>
<stop offset="0.2864" stop-color="#66B848"/>
<stop offset="0.5968" stop-color="#54A044"/>
<stop offset="0.8624" stop-color="#41873F"/>
</linearGradient>
<linearGradient id="paint3_linear_258_334" x1="62.2708" y1="49.0714" x2="72.2914" y2="49.0714" gradientUnits="userSpaceOnUse">
<stop offset="0.09192" stop-color="#6CC04A"/>
<stop offset="0.2864" stop-color="#66B848"/>
<stop offset="0.5968" stop-color="#54A044"/>
<stop offset="0.8624" stop-color="#41873F"/>
</linearGradient>
<linearGradient id="paint4_linear_258_334" x1="39.1521" y1="53.4112" x2="72.3576" y2="53.4112" gradientUnits="userSpaceOnUse">
<stop offset="0.09192" stop-color="#6CC04A"/>
<stop offset="0.2864" stop-color="#66B848"/>
<stop offset="0.5968" stop-color="#54A044"/>
<stop offset="0.8624" stop-color="#41873F"/>
</linearGradient>
<linearGradient id="paint5_linear_258_334" x1="77.1952" y1="26.8413" x2="68.7136" y2="71.0957" gradientUnits="userSpaceOnUse">
<stop stop-color="#41873F"/>
<stop offset="0.3288" stop-color="#418B3D"/>
<stop offset="0.6352" stop-color="#419637"/>
<stop offset="0.9319" stop-color="#3FA92D"/>
<stop offset="1" stop-color="#3FAE2A"/>
</linearGradient>
<clipPath id="clip0_258_334">
<rect width="151" height="93" fill="white"/>
</clipPath>
</defs>
</svg>
