<svg width="20" height="20" viewBox="0 0 20 20" fill="none" xmlns="http://www.w3.org/2000/svg">
<path d="M4.77397 15.287L2.66897 18.537L2.89297 19.6L3.95297 19.373L6.05697 16.125C5.60453 15.8856 5.17506 15.6051 4.77397 15.287ZM13.686 14.152C13.7 14.123 13.709 14.091 13.722 14.06C13.775 13.943 13.822 13.826 13.86 13.703C13.866 13.681 13.869 13.659 13.876 13.639C13.915 13.5046 13.9477 13.3685 13.974 13.231V13.21C14.169 12.041 13.829 10.737 13.051 9.55901L14.161 7.84501C15.44 8.00801 16.546 7.68601 17.078 6.86301C18.001 5.44001 16.878 3.07101 14.573 1.57001C12.266 0.0680118 9.64997 0.00501168 8.72897 1.42601C8.19497 2.25001 8.35097 3.39301 9.02197 4.49901L7.90997 6.21301C6.52097 5.98001 5.19397 6.19701 4.20697 6.85301C4.20097 6.85501 4.19397 6.85701 4.18997 6.86101C4.07465 6.93941 3.96381 7.02421 3.85797 7.11501C3.84097 7.12901 3.82097 7.14201 3.80697 7.15601C3.71097 7.24085 3.62045 7.3317 3.53597 7.42801C3.51597 7.45201 3.48797 7.47301 3.46897 7.49801C3.36247 7.61863 3.26551 7.74735 3.17897 7.88301C1.79497 10.016 2.97597 13.244 5.81197 15.092C8.64997 16.94 12.072 16.706 13.453 14.573C13.54 14.438 13.62 14.297 13.686 14.152ZM12.871 4.19401C11.984 3.61701 11.551 2.70701 11.906 2.15801C12.26 1.61101 13.267 1.63601 14.152 2.21301C15.041 2.79001 15.47 3.70201 15.117 4.24901C14.764 4.79601 13.759 4.77101 12.871 4.19401Z" fill="#A14A76"/>
</svg>
