<svg width="63" height="47" viewBox="0 0 63 47" fill="none" xmlns="http://www.w3.org/2000/svg">
<g clip-path="url(#clip0_258_283)">
<path d="M53.9227 27.0529C51.7426 27.0642 49.8477 27.5892 48.2612 28.3655C47.6788 27.2125 47.0967 26.1854 46.9942 25.4319C46.8798 24.5531 46.743 24.0165 46.8798 22.9663C47.0169 21.9162 47.6333 20.4208 47.6218 20.3067C47.6105 20.1926 47.4847 19.656 46.2292 19.6448C44.9737 19.6333 43.8892 19.8844 43.7636 20.2154C43.6381 20.5463 43.3984 21.2998 43.2386 22.0758C43.0217 23.2175 40.7275 27.2923 39.4149 29.4269C38.9924 28.5939 38.6272 27.8632 38.5471 27.281C38.4331 26.4022 38.296 25.8657 38.4331 24.8155C38.5701 23.7653 39.1865 22.2702 39.175 22.1558C39.1635 22.0418 39.0379 21.5052 37.7824 21.4939C36.5266 21.4824 35.4422 21.7336 35.3169 22.0645C35.1913 22.3957 35.0542 23.1717 34.7918 23.9252C34.5291 24.6787 31.4815 31.4819 30.6825 33.2395C30.3596 33.9509 30.0209 34.655 29.6666 35.3513C29.6666 35.3513 29.6551 35.3856 29.6208 35.4426C29.5095 35.661 29.3954 35.8779 29.2786 36.0933V36.1045C29.1072 36.413 28.9246 36.6982 28.8333 36.6982C28.7648 36.6982 28.6392 35.8764 28.8561 34.7577C29.3126 32.395 30.397 28.7194 30.3858 28.5939C30.3858 28.5253 30.5912 27.8862 29.6781 27.555C28.7875 27.224 28.4681 27.7718 28.388 27.7718C28.3082 27.7718 28.251 27.966 28.251 27.966C28.251 27.966 29.2443 23.8339 26.3563 23.8339C24.5529 23.8339 22.0643 25.8086 20.8316 27.5892C19.4302 28.3519 18.03 29.1167 16.6309 29.8837C15.9578 30.2604 15.2613 30.6371 14.6107 30.9909C14.5649 30.9453 14.5194 30.888 14.4736 30.8425C10.9807 27.1099 4.52011 24.473 4.79404 19.4621C4.89685 17.6358 5.5245 12.8415 17.2018 7.02012C26.8128 2.28291 34.4608 3.59549 35.7849 6.5063C37.6796 10.6614 31.6871 18.3777 21.7561 19.4962C17.9665 19.9187 15.9803 18.4575 15.4782 17.9097C14.9531 17.3388 14.8731 17.3046 14.679 17.4189C14.3595 17.5902 14.5649 18.1038 14.679 18.4005C14.9759 19.1765 16.1972 20.5463 18.2632 21.22C20.0896 21.8134 24.5299 22.1446 29.9062 20.067C35.9217 17.7383 40.6247 11.2663 39.2436 5.84439C37.8622 0.342449 28.7305 -1.47244 20.0896 1.59799C14.9531 3.42462 9.38266 6.30092 5.37615 10.045C0.616176 14.4965 -0.137292 18.3662 0.170901 19.9872C1.27834 25.7401 9.21155 29.4842 12.3848 32.2579C12.2249 32.3492 12.0763 32.4292 11.951 32.4978C10.3643 33.2853 4.31449 36.447 2.8078 39.7916C1.09572 43.5812 3.08196 46.2982 4.39454 46.6631C8.46958 47.7934 12.6587 45.7616 14.9074 42.4055C17.156 39.0496 16.8821 34.6892 15.8434 32.6917C15.8319 32.6689 15.8207 32.6459 15.7977 32.6231C16.2087 32.3835 16.6309 32.1323 17.0419 31.8927C17.7973 31.4461 18.5623 31.016 19.3364 30.6026C18.9481 31.6643 18.6627 32.9313 18.5259 34.7577C18.3545 36.9038 19.2333 39.6888 20.3863 40.7845C20.9001 41.2643 21.505 41.2755 21.8932 41.2755C23.2401 41.2755 23.8452 40.1568 24.5186 38.8328C25.3404 37.212 26.0823 35.3286 26.0823 35.3286C26.0823 35.3286 25.1578 40.4195 27.6691 40.4195C28.5822 40.4195 29.5067 39.2323 29.9177 38.6274V38.6386C29.9177 38.6386 29.9405 38.6044 29.9863 38.5246C30.0776 38.3762 30.1346 38.2847 30.1346 38.2847V38.2621C30.4999 37.6227 31.3219 36.1731 32.5431 33.7646C34.1184 30.6599 35.6366 26.779 35.6366 26.779C35.6366 26.779 35.7736 27.7263 36.2414 29.3015C36.5156 30.2261 37.086 31.242 37.5428 32.2236C37.1775 32.7374 36.9491 33.0226 36.9491 33.0226L36.9606 33.0341C36.6637 33.4221 36.3443 33.8444 35.9903 34.2556C34.746 35.7393 33.2623 37.4404 33.0567 37.9309C32.8168 38.5131 32.8741 38.9356 33.3309 39.278C33.6618 39.5292 34.2552 39.5632 34.8603 39.5292C35.979 39.4491 36.7665 39.1752 37.1545 39.0041C37.7596 38.7872 38.4673 38.456 39.1293 37.9652C40.3508 37.0634 41.0925 35.7736 41.0242 34.073C40.9899 33.1369 40.6817 32.2009 40.305 31.3218C40.4193 31.1622 40.5219 31.0024 40.6362 30.8425C42.5651 28.023 44.0606 24.9296 44.0606 24.9296C44.0606 24.9296 44.1977 25.8769 44.6655 27.4524C44.8939 28.2514 45.3619 29.1189 45.7727 29.9635C43.9578 31.4361 42.8391 33.1482 42.4396 34.2669C41.7206 36.3444 42.2797 37.2803 43.3414 37.4972C43.8207 37.6 44.5056 37.3716 45.0079 37.1547C45.6471 36.9493 46.4005 36.5956 47.1197 36.0703C48.3413 35.1687 49.5167 33.9129 49.4482 32.2124C49.4139 31.4361 49.2085 30.6712 48.9231 29.9292C50.4641 29.2903 52.4503 28.9363 54.9842 29.233C60.4178 29.8722 61.4907 33.2623 61.2851 34.6894C61.0797 36.1161 59.9383 36.8923 59.5618 37.1319C59.1848 37.3718 59.0595 37.4516 59.0937 37.6227C59.1393 37.8739 59.3219 37.8626 59.6416 37.8169C60.0868 37.7371 62.4953 36.6639 62.5979 34.0385C62.7693 30.6827 59.573 27.0186 53.9227 27.0529ZM12.008 41.1842C10.2044 43.1475 7.69335 43.8894 6.60892 43.2618C5.44469 42.5881 5.90123 39.6888 8.11561 37.6115C9.46246 36.3444 11.1975 35.1685 12.3505 34.4495C12.6129 34.2897 13.0012 34.0615 13.4692 33.7761C13.549 33.7303 13.5948 33.7076 13.5948 33.7076L13.8687 33.5362C14.679 36.504 13.903 39.1182 12.008 41.1842ZM25.135 32.2579C24.5071 33.7876 23.1945 37.7028 22.3955 37.4859C21.7106 37.3033 21.2881 34.3354 22.2585 31.4019C22.7493 29.9292 23.7879 28.1713 24.393 27.4867C25.3747 26.3907 26.4591 26.0253 26.7215 26.4708C27.0527 27.0529 25.523 31.299 25.135 32.2579ZM35.9675 37.4401C35.7049 37.5772 35.4539 37.6685 35.3396 37.6C35.2598 37.5542 35.4539 37.3716 35.4539 37.3716C35.4539 37.3716 36.8123 35.9107 37.3486 35.2485C37.6571 34.8605 38.0221 34.404 38.4103 33.8902V34.0385C38.4103 35.7851 36.7207 36.9608 35.9673 37.4401H35.9675ZM44.323 35.5339C44.1289 35.3969 44.1631 34.9403 44.8138 33.5134C45.065 32.9541 45.6583 32.0182 46.6745 31.1164C46.7885 31.4817 46.8686 31.8356 46.8571 32.1666C46.8456 34.3697 45.2706 35.1915 44.323 35.5339Z" fill="#CD6799"/>
</g>
<defs>
<clipPath id="clip0_258_283">
<rect width="62.6667" height="47" fill="white"/>
</clipPath>
</defs>
</svg>
