<svg width="55" height="62" viewBox="0 0 55 62" fill="none" xmlns="http://www.w3.org/2000/svg">
<g clip-path="url(#clip0_258_273)">
<path d="M27.5 0.0102539L55 15.486V46.4475L27.5 61.9232L0 46.4475V15.486L27.5 0.0102539Z" fill="white"/>
<path d="M50.0913 45.3739L28.4131 57.5869V48.089L41.9245 40.6868L50.0913 45.3739ZM51.5752 44.0421V18.5213L43.6471 23.0739V39.489L51.5752 44.0421ZM4.82523 45.3737L26.5036 57.5768V48.0787L12.9923 40.6868L4.82523 45.3739V45.3737ZM3.34131 44.0421V18.5213L11.2697 23.0739V39.489L3.34131 44.0421ZM4.26514 16.8695L26.5036 4.35663V13.5452L12.2556 21.3396L12.1413 21.4016L4.26514 16.8693V16.8695ZM50.6413 16.8695L28.4131 4.35641V13.545L42.6508 21.3497L42.7649 21.4117L50.6413 16.8691V16.8695Z" fill="#8ED6FB"/>
<path d="M26.5038 45.9211L13.1792 38.6219V24.1787L26.5038 31.8289V45.9211ZM28.4133 45.9211L41.7379 38.6324V24.1787L28.4133 31.8289V45.9211ZM14.0717 22.5062L27.4586 15.1866L40.8347 22.5062L27.4586 30.1874L14.0717 22.5062Z" fill="#1C78C0"/>
</g>
<defs>
<clipPath id="clip0_258_273">
<rect width="55" height="61.9841" fill="white"/>
</clipPath>
</defs>
</svg>
