<svg width="141" height="41" viewBox="0 0 141 41" fill="none" xmlns="http://www.w3.org/2000/svg">
<path d="M0.917602 31.8174V16.138H20.51V15.2209H0.917602V0.916859H21.7487V0H0V32.7342H21.9321V31.8174H0.917877H0.917602ZM39.5976 9.16914L31.4763 19.8514L23.5382 9.16942H22.3452L30.9255 20.5393L21.519 32.734H22.6203L31.4758 21.2264L40.3772 32.734H41.5242L32.0723 20.5388L40.6983 9.16887H39.5973L39.5976 9.16914ZM44.2776 40.8033V26.1327H44.3693C44.9201 28.2721 46.0059 29.9914 47.6272 31.2904C49.2484 32.5892 51.313 33.2389 53.8212 33.2389C55.4425 33.2389 56.8803 32.9103 58.1344 32.2532C59.3885 31.5961 60.4361 30.7021 61.2774 29.5712C62.1185 28.4402 62.761 27.126 63.2046 25.6283C63.648 24.1308 63.87 22.5566 63.87 20.9064C63.87 19.1335 63.6403 17.4982 63.1815 16.0007C62.7227 14.503 62.0573 13.2039 61.1857 12.1038C60.3139 11.0034 59.2586 10.1474 58.0196 9.53649C56.7809 8.92507 55.3813 8.61936 53.8212 8.61936C52.6283 8.61936 51.5195 8.79519 50.4948 9.14658C49.4701 9.49824 48.5602 9.99464 47.7649 10.6366C46.9649 11.2835 46.2685 12.0488 45.7 12.9059C45.1189 13.7771 44.6752 14.7322 44.3693 15.7715H44.2776V9.16914H43.36V40.8033H44.2776ZM53.8212 32.3674C50.9462 32.3674 48.6365 31.3818 46.893 29.4105C45.1495 27.4392 44.2776 24.6041 44.2776 20.9059C44.2776 19.3776 44.4918 17.9258 44.9201 16.5505C45.3483 15.1752 45.9677 13.9678 46.7781 12.9288C47.5889 11.8895 48.5907 11.0642 49.7835 10.4531C50.9765 9.84165 52.3226 9.53594 53.8212 9.53594C55.3508 9.53594 56.6892 9.84165 57.8362 10.4531C58.9832 11.0642 59.9316 11.8972 60.6809 12.9516C61.4303 14.006 61.9962 15.2135 62.3787 16.5734C62.761 17.9335 62.9521 19.3776 62.9521 20.9059C62.9521 22.2814 62.7764 23.6493 62.4244 25.0092C62.0728 26.3693 61.5297 27.5919 60.7955 28.6772C60.0616 29.7619 59.1211 30.6482 57.9739 31.3361C56.8266 32.0238 55.4425 32.3674 53.8212 32.3674ZM68.9171 32.7342V19.393C68.9171 18.1093 69.1005 16.856 69.4678 15.6337C69.8347 14.4111 70.4006 13.3335 71.1653 12.4015C71.9301 11.4693 72.9011 10.7357 74.079 10.2007C75.2565 9.66582 76.6561 9.44431 78.2773 9.53594V8.61908C76.8701 8.58881 75.6391 8.74125 74.5838 9.07751C73.5282 9.41376 72.6183 9.87219 71.8535 10.4531C71.0888 11.0337 70.4771 11.7136 70.0183 12.4932C69.5599 13.2715 69.2197 14.1135 69.0088 14.9917H68.9171V9.16914H67.9995V32.7345H68.9171V32.7342ZM79.4243 21.1351H99.1541C99.2155 19.5152 99.055 17.9566 98.6725 16.4589C98.2902 14.9611 97.6783 13.6315 96.8373 12.4703C95.9959 11.3088 94.9101 10.3766 93.5794 9.67352C92.2487 8.97047 90.6658 8.61908 88.8306 8.61908C87.515 8.61908 86.2303 8.89425 84.9762 9.44458C83.7221 9.99465 82.6208 10.7968 81.6726 11.8512C80.7244 12.9056 79.9597 14.197 79.3786 15.7256C78.7975 17.2536 78.5067 18.9957 78.5067 20.9518C78.5067 22.6939 78.7055 24.3215 79.1032 25.8344C79.5009 27.3473 80.1125 28.6618 80.9384 29.7773C81.7646 30.8928 82.8276 31.7563 84.1274 32.3674C85.4273 32.9789 86.9951 33.2692 88.8306 33.2386C91.5222 33.2386 93.7859 32.4819 95.6211 30.9693C97.4566 29.4562 98.5425 27.3244 98.879 24.5736H97.9614C97.5637 27.1717 96.5464 29.1202 94.9101 30.419C93.2734 31.718 91.2165 32.3674 88.7386 32.3674C87.0562 32.3674 85.6338 32.0771 84.4714 31.4965C83.3092 30.9159 82.3608 30.121 81.6266 29.1125C80.8927 28.1037 80.3496 26.9194 79.9979 25.5592C79.646 24.1994 79.4549 22.7245 79.4243 21.1351ZM98.2365 20.2182H79.4246C79.516 18.5678 79.822 17.0854 80.3419 15.7712C80.8621 14.4568 81.5426 13.3335 82.3839 12.4015C83.225 11.4693 84.204 10.7588 85.3204 10.2695C86.4369 9.78056 87.6376 9.53594 88.9223 9.53594C90.4518 9.53594 91.7973 9.81881 92.96 10.3843C94.1222 10.9498 95.0935 11.7216 95.8737 12.6995C96.6536 13.6775 97.2424 14.8161 97.64 16.1149C98.0377 17.414 98.2365 18.7819 98.2365 20.2182ZM118.196 16.138H119.114C119.114 13.5094 118.349 11.5991 116.82 10.4071C115.29 9.21509 113.21 8.61908 110.579 8.61908C109.111 8.61908 107.872 8.80262 106.863 9.16942C105.853 9.53594 105.027 10.0098 104.385 10.5904C103.743 11.171 103.284 11.813 103.008 12.516C102.733 13.2191 102.595 13.8916 102.595 14.5333C102.595 15.8169 102.825 16.8408 103.284 17.605C103.743 18.3691 104.461 18.9651 105.44 19.393C106.113 19.6984 106.878 19.9736 107.734 20.2185C108.591 20.4629 109.585 20.7226 110.717 20.9975C111.726 21.2424 112.72 21.4868 113.699 21.7311C114.678 21.9757 115.542 22.3043 116.292 22.7168C117.041 23.1295 117.653 23.6567 118.127 24.2987C118.601 24.9404 118.838 25.781 118.838 26.8201C118.838 27.8288 118.601 28.6846 118.127 29.3874C117.657 30.0868 117.038 30.6739 116.315 31.1069C115.581 31.5499 114.762 31.8708 113.86 32.0694C112.958 32.2681 112.078 32.3674 111.222 32.3674C108.438 32.3674 106.304 31.7486 104.821 30.5109C103.337 29.2729 102.596 27.3244 102.596 24.6652H101.678C101.678 27.6301 102.481 29.8001 104.087 31.1757C105.693 32.551 108.071 33.2386 111.222 33.2386C112.231 33.2386 113.248 33.1239 114.273 32.8947C115.298 32.6654 116.215 32.2912 117.026 31.7714C117.829 31.259 118.504 30.5689 118.999 29.7544C119.504 28.9289 119.756 27.9205 119.756 26.7284C119.756 25.5975 119.534 24.6806 119.091 23.9776C118.647 23.2748 118.066 22.6939 117.347 22.2355C116.628 21.7771 115.818 21.418 114.915 21.1582C114.008 20.8969 113.098 20.6447 112.185 20.4015C111.062 20.1071 109.938 19.8168 108.813 19.5306C107.849 19.286 106.955 18.9957 106.129 18.6594C105.333 18.3231 104.699 17.8419 104.224 17.2153C103.75 16.5888 103.513 15.6947 103.513 14.5333C103.513 14.3195 103.574 13.9372 103.697 13.3872C103.819 12.8369 104.11 12.2791 104.569 11.7136C105.027 11.1484 105.731 10.644 106.679 10.2007C107.627 9.75772 108.927 9.53594 110.579 9.53594C111.711 9.53594 112.743 9.65839 113.676 9.90274C114.609 10.1474 115.412 10.537 116.085 11.0719C116.758 11.6069 117.278 12.2868 117.645 13.112C118.012 13.9375 118.196 14.946 118.196 16.138ZM139.44 16.138H140.358C140.358 13.5094 139.593 11.5991 138.064 10.4071C136.534 9.21509 134.454 8.61908 131.823 8.61908C130.355 8.61908 129.116 8.80262 128.107 9.16942C127.097 9.53594 126.271 10.0098 125.629 10.5904C124.987 11.171 124.528 11.813 124.252 12.516C123.977 13.2191 123.84 13.8916 123.84 14.5333C123.84 15.8169 124.069 16.8408 124.528 17.605C124.987 18.3691 125.706 18.9651 126.684 19.393C127.357 19.6984 128.122 19.9736 128.978 20.2185C129.835 20.4629 130.829 20.7226 131.961 20.9975C132.97 21.2424 133.965 21.4868 134.943 21.7311C135.922 21.9757 136.786 22.3043 137.536 22.7168C138.285 23.1295 138.897 23.6567 139.371 24.2987C139.845 24.9404 140.082 25.781 140.082 26.8201C140.082 27.8288 139.845 28.6846 139.371 29.3874C138.901 30.0867 138.282 30.6739 137.559 31.1069C136.825 31.5499 136.006 31.8708 135.104 32.0694C134.202 32.2681 133.322 32.3674 132.466 32.3674C129.682 32.3674 127.549 31.7486 126.065 30.5109C124.581 29.2729 123.84 27.3244 123.84 24.6652H122.922C122.922 27.6301 123.725 29.8001 125.331 31.1757C126.937 32.551 129.315 33.2386 132.466 33.2386C133.475 33.2386 134.492 33.1239 135.517 32.8947C136.541 32.6654 137.459 32.2912 138.27 31.7714C139.074 31.259 139.749 30.5689 140.243 29.7544C140.748 28.9289 141 27.9205 141 26.7284C141 25.5975 140.778 24.6806 140.335 23.9776C139.891 23.2748 139.31 22.6939 138.591 22.2355C137.872 21.7771 137.062 21.418 136.159 21.1582C135.252 20.8969 134.342 20.6447 133.429 20.4015C132.306 20.1071 131.182 19.8168 130.057 19.5306C129.093 19.286 128.198 18.9957 127.373 18.6594C126.577 18.3231 125.942 17.8419 125.469 17.2153C124.994 16.5888 124.757 15.6947 124.757 14.5333C124.757 14.3195 124.818 13.9372 124.941 13.3872C125.063 12.8369 125.354 12.2791 125.812 11.7136C126.271 11.1484 126.975 10.644 127.923 10.2007C128.872 9.75772 130.171 9.53594 131.823 9.53594C132.955 9.53594 133.987 9.65839 134.92 9.90274C135.854 10.1474 136.656 10.537 137.329 11.0719C138.002 11.6069 138.522 12.2868 138.889 13.112C139.257 13.9375 139.44 14.946 139.44 16.138H139.44Z" fill="#222222"/>
</svg>
