<svg width="69" height="80" viewBox="0 0 69 80" fill="none" xmlns="http://www.w3.org/2000/svg">
<g clip-path="url(#clip0_258_288)">
<path d="M56.1876 18.7799C55.4671 18.5421 54.7406 18.3219 54.0086 18.1193C54.1316 17.636 54.2448 17.1585 54.3452 16.6894C55.9948 8.98632 54.9164 2.78058 51.2331 0.737349C47.7015 -1.22142 41.926 0.821042 36.0931 5.70449C35.5182 6.18664 34.9561 6.68268 34.4073 7.19214C34.0399 6.85336 33.666 6.52116 33.2858 6.19571C27.1726 0.974183 21.0451 -1.22651 17.3657 0.822569C13.8374 2.78745 12.7926 8.62128 14.2777 15.9216C14.4254 16.6447 14.5922 17.364 14.778 18.0788C13.9106 18.3159 13.0737 18.5683 12.2727 18.8369C5.10544 21.2409 0.52832 25.0081 0.52832 28.9157C0.52832 32.9515 5.44207 36.9996 12.9071 39.4541C13.5123 39.6523 14.1225 39.8359 14.7372 40.0049C14.5376 40.7748 14.3604 41.55 14.2057 42.3295C12.7899 49.5031 13.8955 55.1991 17.4144 57.1515C21.0488 59.1678 27.1488 57.0955 33.0883 52.1007C33.5699 51.6946 34.0409 51.277 34.5009 50.8483C35.0952 51.4 35.7055 51.9356 36.3308 52.4545C42.0844 57.2171 47.7666 59.1403 51.282 57.1825C54.913 55.1604 56.0932 49.0414 54.561 41.5968C54.4403 41.0136 54.305 40.4333 54.1551 39.8563C54.5835 39.7342 55.0039 39.6085 55.4138 39.4778C63.1745 37.0044 68.2239 33.0054 68.2239 28.9157C68.2239 24.9938 63.4989 21.2012 56.1876 18.7799ZM54.5044 36.8373C54.1342 36.955 53.7545 37.0688 53.3674 37.1794C52.5106 34.5702 51.3545 31.7958 49.9395 28.9292C51.2897 26.1309 52.4014 23.3919 53.2341 20.7998C53.9266 20.9926 54.5986 21.1958 55.2464 21.4103C61.5109 23.4851 65.332 26.5522 65.332 28.9157C65.332 31.4331 61.2052 34.7012 54.5044 36.8373ZM51.7241 42.1371C52.4016 45.4289 52.4982 48.4052 52.0494 50.7321C51.6464 52.8229 50.8356 54.2167 49.8329 54.775C47.6997 55.963 43.1374 54.4189 38.217 50.3457C37.6354 49.8632 37.0678 49.3652 36.5149 48.8524C38.4225 46.8456 40.3288 44.5126 42.1894 41.9214C45.462 41.6421 48.5538 41.1852 51.3576 40.5617C51.4927 41.084 51.6149 41.6093 51.7241 42.1371ZM23.6072 54.5697C21.5229 55.2777 19.8628 55.2981 18.8593 54.7415C16.724 53.5568 15.8362 48.9832 17.0471 42.8484C17.191 42.1235 17.3558 41.4025 17.5413 40.6864C20.3142 41.2766 23.3835 41.7009 26.6638 41.9568C28.5371 44.4922 30.4984 46.8227 32.4751 48.8634C32.055 49.2544 31.625 49.6354 31.1854 50.0061C28.5588 52.2146 25.9268 53.7817 23.6072 54.5697ZM13.8427 36.8217C10.5417 35.7363 7.81564 34.3257 5.94714 32.7864C4.26797 31.4033 3.42045 30.0299 3.42045 28.9157C3.42045 26.5443 7.09532 23.5196 13.2247 21.464C13.9685 21.2147 14.747 20.9793 15.5549 20.7585C16.4021 23.4092 17.5133 26.1808 18.8542 28.9834C17.4958 31.8274 16.3688 34.6432 15.5134 37.3252C14.9523 37.1706 14.3952 37.0027 13.8427 36.8217ZM17.1158 15.3872C15.8436 9.1326 16.6885 4.4145 18.8148 3.23033C21.0795 1.96909 26.0874 3.76734 31.3658 8.27608C31.71 8.57075 32.0486 8.8714 32.3815 9.17788C30.4146 11.2097 28.4713 13.5228 26.6146 16.0432C23.4308 16.3271 20.3832 16.783 17.5813 17.3938C17.4086 16.7289 17.2534 16.0599 17.1158 15.3874V15.3872ZM46.3167 22.3238C45.6549 21.224 44.9685 20.1382 44.2581 19.0669C46.418 19.3297 48.4875 19.6784 50.4308 20.1048C49.8474 21.9038 49.1203 23.7845 48.2643 25.7127C47.6386 24.5707 46.9893 23.4408 46.3167 22.3238ZM34.4086 11.1662C35.7424 12.5564 37.0784 14.1084 38.3924 15.7924C35.7268 15.6713 33.0569 15.6708 30.3913 15.7909C31.7066 14.1224 33.0539 12.5724 34.4086 11.1662ZM22.4241 22.3429C21.76 23.4509 21.1228 24.5738 20.5131 25.7104C19.6711 23.789 18.9505 21.8997 18.3621 20.0753C20.2936 19.6596 22.3533 19.3197 24.4994 19.0618C23.7811 20.1396 23.0891 21.2335 22.4241 22.3426V22.3429ZM24.561 38.9675C22.3437 38.7294 20.2531 38.4071 18.3222 38.0026C18.9198 36.1456 19.6563 34.2161 20.5165 32.2535C21.1286 33.391 21.7685 34.5145 22.4355 35.6231C23.1215 36.7627 23.8317 37.879 24.561 38.9675ZM34.4885 46.8611C33.1177 45.4386 31.7505 43.8647 30.4154 42.172C31.7116 42.2208 33.033 42.2458 34.3761 42.2458C35.7559 42.2458 37.1199 42.216 38.4624 42.1585C37.1442 43.8817 35.8133 45.4579 34.4885 46.8611ZM48.2915 32.1533C49.1964 34.1375 49.959 36.0568 50.5646 37.882C48.602 38.313 46.4828 38.6599 44.2499 38.9176C44.9654 37.8265 45.6582 36.7217 46.3281 35.604C47.0091 34.4679 47.6637 33.3174 48.2915 32.1533ZM43.8231 34.214C42.7976 35.9277 41.7146 37.6088 40.5755 39.2547C38.5123 39.3953 36.4445 39.4651 34.3761 39.4641C32.2693 39.4641 30.2202 39.401 28.247 39.2778C27.0783 37.6357 25.9745 35.9517 24.9381 34.2293H24.9384C23.9069 32.516 22.9434 30.7657 22.05 28.9821C22.9411 27.198 23.9017 25.4469 24.9297 23.7323L24.9294 23.7326C25.957 22.0176 27.0519 20.3407 28.2118 18.7056C30.225 18.5591 32.2894 18.4828 34.3758 18.4828H34.3761C36.472 18.4828 38.5391 18.5599 40.5517 18.7074C41.6999 20.34 42.7879 22.0111 43.8135 23.7176C44.845 25.4284 45.8182 27.171 46.7319 28.9426C45.8276 30.7324 44.8574 32.4907 43.8231 34.214ZM49.7887 3.1474C52.0555 4.40509 52.9371 9.47678 51.5129 16.1277C51.4219 16.552 51.3198 16.9842 51.2088 17.4225C48.3999 16.7988 45.3502 16.335 42.1571 16.0468C40.2971 13.4986 38.3696 11.1819 36.4347 9.17635C36.9418 8.70612 37.461 8.24808 37.9917 7.80267C42.9896 3.61878 47.6606 1.9668 49.7887 3.1474ZM34.3761 23.1004C37.7146 23.1004 40.4211 25.7041 40.4211 28.9157C40.4211 32.1273 37.7146 34.7309 34.3761 34.7309C31.0376 34.7309 28.3311 32.1273 28.3311 28.9157C28.3311 25.7041 31.0376 23.1004 34.3761 23.1004Z" fill="#00D8FF"/>
<path d="M12.4966 65.8219H15.2904C17.1529 65.8219 18.4123 65.8937 19.0685 66.0375C19.731 66.1812 20.2685 66.55 20.681 67.1437C21.0998 67.7312 21.3091 68.6719 21.3091 69.9656C21.3091 71.1469 21.1623 71.9406 20.8685 72.3469C20.5748 72.7531 19.9966 72.9969 19.1341 73.0781C19.9154 73.2719 20.4404 73.5312 20.7091 73.8562C20.9779 74.1812 21.1435 74.4812 21.206 74.7562C21.2748 75.025 21.3091 75.7719 21.3091 76.9969V81H17.6435V75.9562C17.6435 75.1437 17.5779 74.6406 17.4466 74.4469C17.3216 74.2531 16.9873 74.1562 16.4435 74.1562V81H12.4966V65.8219ZM16.4435 68.4187V71.7937C16.8873 71.7937 17.1966 71.7344 17.3716 71.6156C17.5529 71.4906 17.6435 71.0937 17.6435 70.425V69.5906C17.6435 69.1094 17.556 68.7937 17.381 68.6437C17.2123 68.4937 16.8998 68.4187 16.4435 68.4187ZM31.3123 75H26.4091V77.6906C26.4091 78.2531 26.4498 78.6156 26.531 78.7781C26.6123 78.9406 26.7685 79.0219 26.9998 79.0219C27.2873 79.0219 27.4779 78.9156 27.5716 78.7031C27.6716 78.4844 27.7216 78.0656 27.7216 77.4469V75.8062H31.3123V76.725C31.3123 77.4937 31.2623 78.0844 31.1623 78.4969C31.0685 78.9094 30.8435 79.35 30.4873 79.8187C30.131 80.2875 29.6779 80.6406 29.1279 80.8781C28.5841 81.1094 27.8998 81.225 27.0748 81.225C26.2748 81.225 25.5685 81.1094 24.956 80.8781C24.3435 80.6469 23.8654 80.3312 23.5216 79.9312C23.1841 79.525 22.9498 79.0812 22.8185 78.6C22.6873 78.1125 22.6216 77.4062 22.6216 76.4812V72.8531C22.6216 71.7656 22.7685 70.9094 23.0623 70.2844C23.356 69.6531 23.8373 69.1719 24.506 68.8406C25.1748 68.5031 25.9435 68.3344 26.8123 68.3344C27.8748 68.3344 28.7498 68.5375 29.4373 68.9437C30.131 69.3437 30.6154 69.8781 30.8904 70.5469C31.1716 71.2094 31.3123 72.1437 31.3123 73.35V75ZM27.5154 72.975V72.0656C27.5154 71.4219 27.481 71.0062 27.4123 70.8187C27.3435 70.6312 27.2029 70.5375 26.9904 70.5375C26.7279 70.5375 26.5654 70.6187 26.5029 70.7812C26.4404 70.9375 26.4091 71.3656 26.4091 72.0656V72.975H27.5154ZM35.9435 73.3781H32.3904V72.5437C32.3904 71.5812 32.4998 70.8406 32.7185 70.3219C32.9435 69.7969 33.3904 69.3344 34.0591 68.9344C34.7279 68.5344 35.5966 68.3344 36.6654 68.3344C37.9466 68.3344 38.9123 68.5625 39.5623 69.0187C40.2123 69.4687 40.6029 70.025 40.7341 70.6875C40.8654 71.3437 40.931 72.7 40.931 74.7562V81H37.2466V79.8937C37.0154 80.3375 36.7154 80.6719 36.3466 80.8969C35.9841 81.1156 35.5498 81.225 35.0435 81.225C34.381 81.225 33.7716 81.0406 33.2154 80.6719C32.6654 80.2969 32.3904 79.4812 32.3904 78.225V77.2031C32.3904 76.2719 32.5373 75.6375 32.831 75.3C33.1248 74.9625 33.8529 74.5687 35.0154 74.1187C36.2591 73.6312 36.9248 73.3031 37.0123 73.1344C37.0998 72.9656 37.1435 72.6219 37.1435 72.1031C37.1435 71.4531 37.0935 71.0312 36.9935 70.8375C36.8998 70.6375 36.7404 70.5375 36.5154 70.5375C36.2591 70.5375 36.0998 70.6219 36.0373 70.7906C35.9748 70.9531 35.9435 71.3812 35.9435 72.075V73.3781ZM37.1435 75.0844C36.5373 75.5281 36.1841 75.9 36.0841 76.2C35.9904 76.5 35.9435 76.9312 35.9435 77.4937C35.9435 78.1375 35.9841 78.5531 36.0654 78.7406C36.1529 78.9281 36.3216 79.0219 36.5716 79.0219C36.8091 79.0219 36.9623 78.95 37.031 78.8062C37.106 78.6562 37.1435 78.2687 37.1435 77.6437V75.0844ZM50.606 73.2562H47.0341V71.8219C47.0341 71.3219 46.9935 70.9844 46.9123 70.8094C46.831 70.6281 46.681 70.5375 46.4623 70.5375C46.2435 70.5375 46.0966 70.6156 46.0216 70.7719C45.9466 70.9281 45.9091 71.2781 45.9091 71.8219V77.6906C45.9091 78.1344 45.9654 78.4687 46.0779 78.6937C46.1904 78.9125 46.356 79.0219 46.5748 79.0219C46.831 79.0219 47.0029 78.9062 47.0904 78.675C47.1841 78.4437 47.231 78.0062 47.231 77.3625V75.8812H50.606C50.5998 76.875 50.5623 77.6219 50.4935 78.1219C50.431 78.6156 50.2216 79.125 49.8654 79.65C49.5154 80.1687 49.056 80.5625 48.4873 80.8312C47.9185 81.0938 47.2154 81.225 46.3779 81.225C45.3091 81.225 44.4623 81.0438 43.8373 80.6812C43.2123 80.3125 42.7685 79.8 42.506 79.1437C42.2498 78.4812 42.1216 77.5437 42.1216 76.3312V72.7969C42.1216 71.7406 42.2279 70.9437 42.4404 70.4062C42.6529 69.8687 43.106 69.3906 43.7998 68.9719C44.4935 68.5469 45.3373 68.3344 46.331 68.3344C47.3185 68.3344 48.1623 68.5437 48.8623 68.9625C49.5623 69.3812 50.0279 69.9094 50.2591 70.5469C50.4904 71.1844 50.606 72.0875 50.606 73.2562ZM55.7341 66.9V68.8594H56.756V70.8281H55.7341V77.4844C55.7341 78.3031 55.7748 78.7594 55.856 78.8531C55.9435 78.9469 56.2966 78.9937 56.9154 78.9937V81H55.3873C54.5248 81 53.9091 80.9656 53.5404 80.8969C53.1716 80.8219 52.8466 80.6562 52.5654 80.4C52.2841 80.1375 52.1091 79.8406 52.0404 79.5094C51.9716 79.1719 51.9373 78.3844 51.9373 77.1469V70.8281H51.1216V68.8594H51.9373V66.9H55.7341Z" fill="#111827"/>
</g>
<defs>
<clipPath id="clip0_258_288">
<rect width="67.5679" height="80" fill="white" transform="translate(0.52832)"/>
</clipPath>
</defs>
</svg>
