<svg width="46" height="64" viewBox="0 0 46 64" fill="none" xmlns="http://www.w3.org/2000/svg">
<g clip-path="url(#clip0_258_294)">
<path d="M22.6651 63.8383L4.19513 58.7109L0.0791016 12.5458H45.3064L41.1861 58.7038L22.6651 63.8383Z" fill="#264DE4"/>
<path d="M37.6583 55.7646L41.1792 16.3204H22.6924V59.9136L37.6583 55.7646Z" fill="#2965F1"/>
<path d="M9.51486 33.4424L10.0223 39.1044H22.6927V33.4424H9.51486ZM8.49512 21.9825L9.00978 27.6445H22.6927V21.9825H8.49512ZM22.6927 48.1472L22.6678 48.1538L16.3622 46.4511L15.959 41.9355H10.2752L11.0684 50.8256L22.6666 54.0451L22.6927 54.038V48.1472Z" fill="#EBEBEB"/>
<path d="M10.7231 0H17.5805V2.86777H13.5909V5.73553H17.5809V8.60312H10.7231V0ZM18.9522 0H25.8098V2.4937H21.82V2.9924H25.8098V8.72793H18.9524V6.10925H22.9422V5.61055H18.952V0H18.9522ZM27.1814 0H34.039V2.4937H30.0492V2.9924H34.039V8.72793H27.1814V6.10925H31.1712V5.61055H27.1816V0H27.1814Z" fill="black"/>
<path d="M35.8342 33.4424L36.8562 21.9825H22.673V27.6445H30.6512L30.136 33.4424H22.673V39.1044H29.6451L28.9878 46.4476L22.6729 48.152V54.0425L34.2803 50.8256L34.3653 49.869L35.6961 34.9628L35.8342 33.4424Z" fill="white"/>
</g>
<defs>
<clipPath id="clip0_258_294">
<rect width="45.385" height="64" fill="white"/>
</clipPath>
</defs>
</svg>
