<svg width="62" height="92" viewBox="0 0 62 92" fill="none" xmlns="http://www.w3.org/2000/svg">
<g clip-path="url(#clip0_258_300)">
<path d="M15.3333 92C23.7973 92 30.6667 85.1307 30.6667 76.6667V61.3333H15.3333C6.86933 61.3333 0 68.2027 0 76.6667C0 85.1307 6.86933 92 15.3333 92Z" fill="#0ACF83"/>
<path d="M0 46C0 37.536 6.86933 30.6667 15.3333 30.6667H30.6667V61.3333H15.3333C6.86933 61.3333 0 54.464 0 46Z" fill="#A259FF"/>
<path d="M0 15.3333C0 6.86933 6.86933 0 15.3333 0H30.6667V30.6667H15.3333C6.86933 30.6667 0 23.7973 0 15.3333Z" fill="#F24E1E"/>
<path d="M30.6665 0H45.9998C54.4638 0 61.3332 6.86933 61.3332 15.3333C61.3332 23.7973 54.4638 30.6667 45.9998 30.6667H30.6665V0Z" fill="#FF7262"/>
<path d="M61.3332 46C61.3332 54.464 54.4638 61.3333 45.9998 61.3333C37.5358 61.3333 30.6665 54.464 30.6665 46C30.6665 37.536 37.5358 30.6667 45.9998 30.6667C54.4638 30.6667 61.3332 37.536 61.3332 46Z" fill="#1ABCFE"/>
</g>
<defs>
<clipPath id="clip0_258_300">
<rect width="61.3333" height="92" fill="white"/>
</clipPath>
</defs>
</svg>
