<svg width="672" height="314" viewBox="0 0 672 314" fill="none" xmlns="http://www.w3.org/2000/svg">
<g clip-path="url(#clip0_218_31)">
<path d="M66.1174 144.24C64.2795 147.944 61.9677 151.393 59.2402 154.5C61.9677 157.607 64.2795 161.056 66.1174 164.76C72.3913 177.675 72.3913 192.884 72.3913 207.609C72.3913 238.871 74.5631 246.234 96.5218 246.234C100.362 246.234 104.044 247.76 106.759 250.477C109.475 253.193 111 256.877 111 260.719C111 264.56 109.475 268.244 106.759 270.961C104.044 273.677 100.362 275.203 96.5218 275.203C73.4772 275.203 57.6718 266.875 49.7087 250.459C43.4348 237.544 43.4348 222.335 43.4348 207.609C43.4348 176.347 41.2631 168.984 19.3044 168.984C15.4645 168.984 11.7819 167.458 9.0667 164.742C6.35149 162.026 4.82611 158.341 4.82611 154.5C4.82611 150.659 6.35149 146.974 9.0667 144.258C11.7819 141.542 15.4645 140.016 19.3044 140.016C41.2631 140.016 43.4348 132.653 43.4348 101.391C43.4348 86.6648 43.4348 71.4562 49.7087 58.541C57.6718 42.1254 73.4772 33.7969 96.5218 33.7969C100.362 33.7969 104.044 35.3229 106.759 38.0393C109.475 40.7556 111 44.4398 111 48.2812C111 52.1227 109.475 55.8069 106.759 58.5233C104.044 61.2396 100.362 62.7656 96.5218 62.7656C74.5631 62.7656 72.3913 70.1285 72.3913 101.391C72.3913 116.116 72.3913 131.325 66.1174 144.24Z" fill="#0DFFF0"/>
</g>
<path d="M369.026 203.625L375.401 209C371.568 218.583 366.484 226.458 360.151 232.625C353.818 238.792 347.484 241.875 341.151 241.875C334.818 241.875 330.276 239.833 327.526 235.75C324.859 231.667 323.526 226.5 323.526 220.25C323.526 214 325.443 203.958 329.276 190.125C333.193 176.292 337.443 163 342.026 150.25C354.443 116.25 360.651 94.4167 360.651 84.75C360.651 79.1667 358.859 76.375 355.276 76.375C341.026 76.375 323.276 99.3333 302.026 145.25C293.443 163.75 286.693 179.292 281.776 191.875C271.609 218.208 265.526 233.917 263.526 239H235.651L247.151 209C260.818 174.25 270.859 141.958 277.276 112.125C279.776 100.792 281.026 91.7083 281.026 84.875C281.026 74.4583 278.276 69.25 272.776 69.25C267.276 69.25 261.068 73.4583 254.151 81.875C247.234 90.2083 240.609 100.667 234.276 113.25C227.943 125.833 221.609 139.458 215.276 154.125C208.943 168.792 203.443 182.417 198.776 195C188.026 224.333 182.484 239 182.151 239H157.651L171.651 199.875C184.151 167.625 191.776 142.25 194.526 123.75C195.859 115.167 196.526 106.417 196.526 97.5C196.526 88.5833 194.234 81.125 189.651 75.125C185.068 69.0417 178.776 66 170.776 66C162.776 66 155.859 67.7083 150.026 71.125C144.276 74.4583 139.526 78.7083 135.776 83.875C132.026 89.0417 128.859 94.8333 126.276 101.25C121.359 113.167 118.901 124.792 118.901 136.125C118.901 160.375 124.443 181.708 135.526 200.125L130.151 204.125C124.151 194.542 119.568 183.792 116.401 171.875C113.318 159.875 111.776 149.417 111.776 140.5C111.776 131.583 112.443 123.708 113.776 116.875C115.109 109.958 117.318 103 120.401 96C123.484 89 127.276 82.7917 131.776 77.375C136.359 71.875 142.193 67.4167 149.276 64C156.443 60.5 163.943 58.75 171.776 58.75C179.609 58.75 186.193 60.25 191.526 63.25C196.943 66.25 201.193 70.2917 204.276 75.375C210.359 85.375 213.401 97.5 213.401 111.75C213.401 126 208.943 146.75 200.026 174C203.109 165.833 205.359 160.125 206.776 156.875C208.276 153.625 210.026 149.625 212.026 144.875C214.109 140.125 215.734 136.417 216.901 133.75C218.068 131 219.859 127.042 222.276 121.875C224.693 116.625 226.776 112.333 228.526 109C230.359 105.583 232.651 101.458 235.401 96.625C238.234 91.7083 240.818 87.6667 243.151 84.5C245.484 81.3333 248.151 78 251.151 74.5C254.234 70.9167 257.193 68.0833 260.026 66C266.443 61.1667 272.651 58.75 278.651 58.75C292.818 58.75 299.901 68.25 299.901 87.25C299.901 99.25 297.526 114.125 292.776 131.875C291.193 137.792 288.984 145.458 286.151 154.875C283.401 164.208 281.859 169.542 281.526 170.875C285.193 164.125 289.984 153.583 295.901 139.25C301.818 124.917 307.026 113.625 311.526 105.375C316.026 97.125 320.526 90.0833 325.026 84.25C329.526 78.4167 334.901 73.5417 341.151 69.625C347.484 65.7083 353.734 63.75 359.901 63.75C366.151 63.75 371.068 65.75 374.651 69.75C378.318 73.75 380.151 79.0833 380.151 85.75C380.151 92.4167 378.984 100.542 376.651 110.125C374.318 119.625 371.443 129.083 368.026 138.5C364.609 147.917 361.193 157.292 357.776 166.625C349.359 189.208 344.859 206.75 344.276 219.25C344.276 224.583 345.651 227.25 348.401 227.25C351.234 227.25 354.568 224.833 358.401 220C362.234 215.167 365.776 209.708 369.026 203.625Z" fill="#68DC66"/>
<path d="M395.625 255.375C393.542 255.375 391.417 254.292 389.25 252.125C387.083 249.958 386 247.792 386 245.625C386 244.125 388.042 239.042 392.125 230.375C396.292 221.708 402.833 210.542 411.75 196.875C420.75 183.125 428.917 171.375 436.25 161.625C437 160.625 437.625 159.708 438.125 158.875C443.458 150.208 451.292 138.375 461.625 123.375C472.792 107.458 482.667 92.375 491.25 78.125C495.25 71.5417 500.583 63.875 507.25 55.125C513.917 46.2917 518.708 41.875 521.625 41.875C523.292 41.875 525.375 43.375 527.875 46.375C530.375 49.375 531.625 51.7917 531.625 53.625C531.625 56.875 525.958 66.2917 514.625 81.875C490.125 115.292 466.625 148.792 444.125 182.375C441.375 186.458 437.5 192.083 432.5 199.25C424.167 211.583 419.083 219.917 417.25 224.25C415.417 228.583 411.667 234.833 406 243C400.417 251.25 396.958 255.375 395.625 255.375ZM624.795 153.5C620.045 147.25 614.962 142.792 609.545 140.125C606.462 138.542 600.42 135.292 591.42 130.375C581.837 125.042 574.337 121 568.92 118.25C561.42 114.583 555.045 110.042 549.795 104.625C544.545 99.2083 541.92 93.6667 541.92 88C541.92 83.9167 543.962 81.875 548.045 81.875C550.045 81.875 554.795 84.75 562.295 90.5C567.962 94.8333 578.17 101.667 592.92 111C607.753 120.333 620.253 127.75 630.42 133.25C643.92 140.167 651.212 144.583 652.295 146.5C653.462 148.417 654.045 150.5 654.045 152.75C654.045 155.167 645.753 162.167 629.17 173.75C627.753 174.667 625.253 176.583 621.67 179.5C618.087 182.417 613.503 186.917 607.92 193L587.295 215.375C583.128 219.958 579.712 223.333 577.045 225.5C574.378 227.667 571.795 228.75 569.295 228.75C566.962 228.75 564.628 227.75 562.295 225.75C559.962 223.75 558.795 221.5 558.795 219C558.795 216.25 561.212 213.042 566.045 209.375C567.545 208.292 569.045 207 570.545 205.5C582.462 191.417 594.045 179.708 605.295 170.375C614.378 163.375 620.878 157.75 624.795 153.5Z" fill="#68DC66"/>
<defs>
<clipPath id="clip0_218_31">
<rect width="96.224" height="309" fill="white"/>
</clipPath>
</defs>
</svg>
